<?xml version="1.0" encoding="UTF-8"?>
<svg xmlns="http://www.w3.org/2000/svg" xmlns:xlink="http://www.w3.org/1999/xlink" viewBox="0 0 512 512">
  <defs>
    <style>
      .cls-1 {
        fill: none;
      }

      .cls-2 {
        fill: #fdfdfe;
      }

      .cls-3 {
        fill: #bbd5ec;
      }

      .cls-4 {
        fill: #f2f6fa;
      }

      .cls-5 {
        fill: #fcfcfd;
      }

      .cls-6 {
        fill: #bad4eb;
      }

      .cls-7 {
        fill: #bcd5ec;
      }

      .cls-8 {
        fill: #f4f7fb;
      }

      .cls-9 {
        fill: #fcfdfe;
      }

      .cls-10 {
        fill: #bbd5eb;
      }

      .cls-11 {
        fill: #fefefe;
      }

      .cls-12 {
        fill: #bcd5eb;
      }

      .cls-13 {
        fill: #fbfcfd;
      }

      .cls-14 {
        fill: #bdd5ec;
      }

      .cls-15 {
        fill: #bbd4eb;
      }

      .cls-16 {
        fill: #fdfefe;
      }

      .cls-17 {
        clip-path: url(#clippath);
      }

      .cls-18 {
        fill: #fcfdfd;
      }
    </style>
    <clipPath id="clippath">
      <rect class="cls-1" width="512" height="512"/>
    </clipPath>
  </defs>
  <g id="SVG背景">
    <g class="cls-17">
      <g>
        <path class="cls-11" d="M-17.39-50.74c2.1.83,4.39.84,6.5,0H2.12s2.16,1.12,2.16,1.12c.8,5.46,7.45,5.73,8.65.35l2.2-1.47h59.61s2.19,1.05,2.19,1.05c.9,5.41,7.26,5.77,8.59.34l2.23-1.39h59.61c1.96,1.62,4.03,3.02,6.2,4.19l2.24-.48c1.38-1.76,2.9-2.99,4.56-3.71h59.61c1.98,1.57,4.05,2.95,6.21,4.14l2.21-.47c1.38-1.77,2.91-3,4.59-3.67l13,.04c.51.79.85,1.75.38,2.51-1.72,2.74-4.54,8.32,1.75,8.09,4.47-.16,5.57-5.23,2.15-7.86l.06-2.78h42.53c5.74,3.68,6.7,3.74,12.48,0l13.27.04c.53.78.89,1.75.42,2.51-1.65,2.67-4.59,8.27,1.71,8.05,4.43-.16,5.5-5.19,2.11-7.79l.1-2.77,40.1-.03,2.97,3.2c5.78,6.14,10.23,1.43,14.37-3.18h4.32s1.56,1.89,1.56,1.89c-4.05,14.93,18.25,15,14.26.01l1.55-1.92h33.58s2.2.74,2.2.74c3.37,5.23,9.5,5.32,12.89.02l2.25-.76h4.34s1.61,1.84,1.61,1.84c-3.92,14.87,17.98,14.94,14.14.03l1.59-1.87h33.6s2.2.74,2.2.74c3.08,4.93,9.4,5.52,12.5.31l2.64-1.05h4.34s1.65,1.77,1.65,1.77c-2.73,13.26,16.8,13.19,14.07,0l1.62-1.78h2.17v26.23c-2.8,5.06-2.8,9.67,0,14.74v4.55s-1.35,2.03-1.35,2.03c-12.72-.79-12.78,16.19-.03,15.47l1.39,2.01v7.59s-2.42.28-2.42.28c-20.11-16.59-20.24,24.64-.01,8.15l2.43.25v18.43c-2.72,4.42-2.74,8.56-.01,13.01v5.42s-1.09,2.16-1.09,2.16c-11.27.27-11.31,14.88-.02,15.19l1.13,2.15v7.59s-2.42.29-2.42.29c-20.08-16.55-20.23,24.57-.01,8.12l2.43.26v18.46c-2.2,4.2-2.2,8.72,0,12.94l-.02,4.37-1.14,2.13c-12.52.8-12.63,16.63.03,17.43l1.14,2.12v5.38s-2.34.66-2.34.66c-18.23-12.07-18.33,21.6-.02,9.63l2.36.63v18.4c-1.84,3.47-1.84,7.3,0,10.8v9.77c-.33,1.81-1.49,1.99-3.01,2.17-6.25,4.33-1.32,8.12,3,10.84v58.53c.02.91-.22,1.86-1.04,2.31-6.18,3.36-7.67,6.97-.39,10.49l1.45,2.38-.04,14.09c-1.47,1.45-2.99.54-4.55-2.73-13.4-4.66-7.36,16.79,2.07,5.19l2.52.79v40.38s-.96,2.36-.96,2.36c-6.55,1.97-6.84,9.63-.38,11.98l1.34,2.46v5.69s-2.15,1.19-2.15,1.19c-11.37-5.93-18.59,7.19-8.64,14.61-.12,2.59-2.48,4.03-7.08,4.33-3.12,2.62-5.72,3.29-7.81,2.01-1.71-9.06-10.6-13.37-17.4-6.44l-2.4-.49c-.95,2.1-1.67,1.71-2.16-1.18l-1.46-.31c-7.41-16.14-26.24-2.88-14.51,9.68.04,2.38-1.89,3.91-5.79,4.59-4.39,4.37-7.45,3.04-9.17-3.96-1.86-1.73-3.46-3.53-4.82-5.41-1.49-4.78,2.78-2.45-.04-1.14l-6.82,1.01c-3.4,5.56-8.59,10.86-10.53.88-6.64-13.08-23.86-2.35-16.03,9.17,3.14,2.41,3.88,4.58,2.21,6.49-19.39,2.68-7.72,27.63,6.72,14.33,2.99-2.16,7.21,11.58,6.87,12.42-10.99,4.9-12.65,11.66-6.76,21.98l-1.11,1.35c-10.34,3.13-11.82,12.09-4.6,19.58l-1.16,2.92c-9.96.62-13.88,10.29-6.54,17.31-.09,2.76-2.32,4.75-6.69,5.97-2.57,3.09-4.85,3.95-6.83,2.6-1.7-17.96-26.23-9.4-15.63,5.26,5.55,3.65,3.77,6.1-5.34,7.36-2.4,2.45-4.67,3.64-6.83,3.56l-2.06-1.36c-1.63-22.51-30.41-4.48-10.97,6.96.93,2.27.19,2.86-2.12,2.12l-1.69,1.68c-10.02-1.32-14.76,9.52-6.95,16.53,4.59,4.12,12.31-.78,15.77-3.94.64,2.46,1.21,4.86,1.74,7.2l.08-1.45c12.84-.84,25.97-1.1,39.38-.76-2-1.78-3.51-3.41-1.47-5.61.85-.91,11.46-6.01,12.01-3.5.38,2.1,2.66,8.26,4.5,8.93,2.58.93,13.22,1.02,14.41-3.05,3.01-.61,4.28.23,4.82,3.23l38.17.16c-3.56-3.79-2.19-6.48,4.13-8.05,2.94-3.27,5.48-4.34,7.6-3.19.33,2.28,2.4,10.11,4.46,11.05,2.76,1.26,12.63.04,15.12-2.55l3.45,2.69,20.62-.05,1.51,2.18v1.06H-26.06V-50.74h8.67Z"/>
        <path class="cls-6" d="M549.41,382.81v15.17c-.49,2.63-1.37,3.61-3.97,4.09,1.68,2.46,3.01,5.08,3.97,7.86v17.27c-1.09.97-3.37.15-3.22.1,1.31-.41,3.09.82,3.22,2.11v44.62c-2.28,3.38-2.36,6.89,0,10.66v15.17c-2.22,1.71-4.25.46-6.08-3.76-3.53,1.21-4.36,2.58-2.51,4.12l-1.06,2.85c1.11,3.05,1.33,6.62-1.23,8.7,1.62,4.35-2.38,6.47-6.17,7.7l2.17,4.5c4.04-2.28,7.62-2.4,10.77-.36,1.41-3.32,3.61-2.37,4.12,1.18v20.74c-.1,1.85-.88,2.9-2.34,3.13l2.34,8.65v4.36s-22.71-.11-22.71-.11c-.96,0-2.04-2.13-2.59-3.29-1.62,1.84-3.31,3.47-6.06,3.43l-14.45-.21c.9-1.09,1.77-1.17,3.6-1.39-3.48-2.85-4.49-6.52-4.65-11.71-2.23,4.18-5.67,6.1-10.82,6.96,2.06,1.91,3.9,3.2,4.51,6.43l-43.88-.18c-.28-1.72-.21-2.82-1-4.43-1.34,1.87-3.15,4.47-5.95,4.43l-15.35-.25c1.32-1.26,2.47-1.04,3.26-1.3-3.13-2.58-4.19-5.25-4.43-9.53-2.82,2.7-5.49,3.87-9.91,4.89,2.07,1.96,3.96,3.31,4.86,6.23h-43.22c-1.08-1.63-.81-4.14-.44-6.03-.37-5.79,1.33-9.06,7.12-10.68-3.36-4.38-2.87-7.87-.39-12.47,3.35-4.87,7.42-7.55,14.52-6.71-5.83-2.8-8.46-8.17-6.71-14.18,1.54-5.32,7.21-8.64,13.11-7.34,5.16,1.13,8.85,5.68,8.6,12.05,2.07-4.34,6.18-5.92,10.7-7.03-4.71-3.75-5.92-8.84-4.01-13.68,1.65-4.19,5.92-7.25,11.67-6.86-4.17-3.58-6.62-8.3-5.13-13.7,1.21-4.38,4.79-7.76,10.61-8.91-3.86-3.87-5.21-8.63-3.66-13.41,1.44-4.45,4.99-7.82,10.41-8.73-2.7-3.7-3.54-6.27-4.14-10.72-3.36,4.74-9.1,6.32-14.35,3.87-4.65-2.17-7.21-7.7-5.56-13.27,1.36-4.58,5.74-7.84,11.83-7.74-5.27-3.26-7.7-8.84-5.74-14.37s7.5-8.65,13.05-7.53c5.78,1.17,9.29,5.88,9.85,12.85,1.86-3.21,3.98-5.85,7.2-5.79,2.12-.6,5.35-1.27,6.86.14,5.05.1,8.12,5.21,8.81,10.84,2.58-3.01,5.39-4.45,9.86-4.85-4.55-3.55-6.24-9.04-3.74-14.37,1.95-4.18,6.69-6.97,12.37-5.87,4.15.8,8.27,4.66,8.45,9.67,1.56,1.74.62,5.28-1.17,6.54.7.7.7,3.19,0,3.63-.86.54.12-3.51,1.62-3.62-.66-1.63-.2-5.39,1.71-5.39,3.01-4.02,8.11-6.04,12.73-4.68,4.97,1.46,8.02,5.39,8.96,11.49,3.31-4.08,6.95-4.94,12.17-4.97-6.2-2.85-7.97-10.43-3.98-15.75,3.64-4.85,10.68-4.81,15.59-1.29Z"/>
        <path class="cls-6" d="M255.79,491.19c-.32,3.45-1.79,5.83-4.4,7.14-3.37.25-3.62,2.5-.77,6.77,2.4-1.9,4.36-1.92,5.87-.08,2.6,0,4.83-.5,6.69-1.51l1.14,2.29c4.32,2.22,6.77,6.98,6.18,11.65-.64,5.1-4.24,9.07-9.98,10.22,2.5,3.01,4.11,5.01,3.92,7.72.57,2.3,1.15,4.39,1.74,6.28l-2.26,1.22c-1.69,4.39-5.5,6.55-10.79,7.86,2.73,3.41,4.08,6.67,3.46,10.89l-22.37-.12c-.61-.6-1.9-1.91-2.37-1.47-2.24,2.12-10.34,2.26-15.06,1.23-3.3-.72-4.61-5.07-5.69-8.53-3.06,2.96-6.12,4.4-10.92,4.74,1.6,1.44,3.06,2.07,3.62,4.1l-61.53.09c-2.34-2.72-3.15-5.24-3.92-8.93-2.88,3.4-6.59,4.93-10.69,4.14-1.71,2.17-4.36,1.51-5.04-1.13-3.2.32-5.59-1.44-7.16-5.28-3.38,1.29-4.53,2.57-3.46,3.84l-1.35,2.71c.78,3,.61,4.52-.5,4.56l-40.77-.22c-2.37-.42-3.21-5.45-3.72-7.08-2.75,2.76-5.39,4.24-9.54,4.23l2.33,3.02-19.6-.04c2.41-3.43,5.59-4.66,9.99-5.53-3.5-2.81-4.71-6.04-4.77-10.86-3.67,4.73-9.23,6.24-14.48,3.72-4.68-2.25-7.33-7.66-5.63-13.39,1.42-4.79,6.25-8.11,11.83-7.77-5.06-3.48-7.09-8.35-5.79-13.33s5.37-8.18,11.62-9.06c-3.46-3.63-5.19-7.61-4.42-11.85-.59-1.58.27-3.8,1.9-4.33,1.39-2.49,4.14-4.63,7.07-4.49l3.61-.63c.93-2.51,4.33-1.52,4.04,1.39,4.09,1.41,6.02,5.36,6.89,10.53,3.85-4.05,8.57-5.72,13.61-3.94,3.99,1.41,7.02,4.81,8.14,10.42,3.26-3.62,6.85-4.65,11.94-4.9-5.19-2.87-6.85-8.5-4.9-13.63s7.19-7.72,12.53-6.54,8.6,5.56,8.7,12.05c3.09-5.06,8.26-7.54,13.56-6.06s8.52,5.97,8.94,12.63c3.42-4.97,8.5-6.51,13.52-4.79,4.42,1.52,7.34,5.42,8.23,11.36,3.93-4.04,8.54-5.72,13.59-3.94,3.93,1.39,6.96,4.79,8.16,10.33,2.95-3.5,6.15-4.57,10.84-4.99-4.06-2.47-6.76-7.55-5.09-11.4-2.62-1.73-1.62-3.76,1.44-3.33,2.14-4.94,7.98-7.29,12.98-5.88,5.38,1.52,8.5,5.99,8.95,12.63,3.21-4.71,7.84-6.35,12.7-5.08,4.49,1.17,7.63,4.8,9.01,10.61,3.19-3.21,6.34-4.33,11.17-5.1-5.08-3.87-6.26-10.06-3.38-15.19s9.25-6.64,14.5-4.21c5.5,2.55,6.44,8.47,5.91,14.23Z"/>
        <path class="cls-6" d="M507.43,124.9c.76-.08.95.21.58.88,5.76,1.31,8.27,7.88,6.49,13.32.41.8.17,1.02-.69.69-1.12,5.13-6.37,7.65-12.21,7.04,5.14,3.21,7.65,8.85,5.66,14.37-1.9,5.27-7.41,8.7-13.1,7.57-5.29-1.04-8.93-5.26-9.91-11.79-3.99,5.42-10.4,6.53-15.47,3.52s-6.75-9.59-4.16-14.77c2.68-5.35,8.01-6.74,14.57-5.96-6.08-2.23-9.13-7.99-7.33-13.89,1.64-5.37,7.28-8.56,12.79-7.29s8.83,6.28,8.63,13.15c2.6-5.87,8.31-8.48,14.14-6.84Z"/>
        <path class="cls-6" d="M442.56,139.44c.19,1.18-.37,1.61-1.49,1.24-1.29,5.4-6.33,7.72-12.22,7.2,5.2,3.3,7.69,8.85,5.72,14.38-1.89,5.31-7.45,8.62-13.01,7.49s-9.35-5.83-9.82-12.68c-3.46,4.47-7.92,6.1-12.6,4.88-4.31-1.13-8.79-5.15-8.12-9.66-2.35-3.91-2.02-6.1.97-6.58,1.63-3.47,4.93-6.51,8.65-5.98,3.91-2.34,6.06-2.03,6.47.93,4.37.28,7.29,2.48,8.76,6.63l4.49-2.12c-2.93-4.54-2.83-8.1.29-10.67-1.06-2.35-.8-2.99.78-1.92-.5-4.07,1.63-7.11,6.39-9.11-1.65-1.71-1.7-3.18.12-4.84-.71-2.66-.63-4.96.24-6.9.42-5.95,7.71-8.66,12.9-6.96,5.52,1.81,8.53,7.41,7.27,12.77-1.35,5.72-6.32,8.79-13.17,8.63,5.41,2.44,8.23,7.49,7.38,13.28Z"/>
        <path class="cls-6" d="M226.32,468.2c-.78.43-1.02.19-.76-.69-5.76-1.35-8.27-7.96-6.48-13.44s7.4-8.48,14.19-7.55c-5.63-2.58-8.37-8.26-6.55-14.07,1.82-5.82,8.06-9.04,14.1-7.12,5.5,1.75,8.66,7.53,7.32,13.21-1.47,6.23-7.21,9.37-14.39,8.42,5.67,2.65,8.46,8.31,6.61,14.15s-8.14,9.1-14.03,7.08Z"/>
        <path class="cls-15" d="M413.99,118.21c8.15,1.79,9.45,7.01,7.45,14.37l-.78,1.92c-2.87,5.99-6.45,9.38-13.54,6.17l-6.47-.93,2.9-1.31c-4.62-3.08-6.17-8.76-3.87-14.1,2.04-4.75,7.27-6.15,12.59-6.61.19-3.15,2.2-2.68,1.72.5Z"/>
        <path class="cls-15" d="M521.56,102.33c-1.8.54-3.22.79-6.35,1.12,5.1,2.37,7.8,6.56,7.15,12.12-.93,8.04-7.44,8.95-14.35,10.22-.32-.07-.7-.51-.58-.88-4.11-2.91-7.3-6.31-6.94-11.5.8-11.51,11.8-9.55,14.76-11.15.19-3.89,5.73-3.63,6.3.07Z"/>
        <path class="cls-15" d="M427.88,38.64c3.8-.94,3.58,5.71.17,6.25-1.61-1.3-.95-3.4-1.31-6.25-2.64,5.29-7.24,8.15-13.12,6.93-4.88-1.01-8.75-5.53-8.48-11.17.24-5.12,3.93-9.72,9.39-10.37s11.48,2.52,12.22,8.77c.27,2.32.13,4.19,1.13,5.84Z"/>
        <path class="cls-15" d="M484.43,96.29c6.17-2.48,12.42.62,14.48,5.81,2.26,5.7-.2,12.27-5.87,14.51-5.38,2.12-11.6.09-14.16-5.15-2.59-5.29-.92-12.57,5.56-15.17Z"/>
        <path class="cls-15" d="M428.19,111.73c-.16,2.26.52,4.71-.24,6.9-2.33-.99-4.4-.69-6.21.88-2.51,1.34-5.09.9-7.75-1.31-.68-.83-.92-.57-1.72-.5-5.68-1.66-8.38-7.83-6.64-13.64,1.6-5.35,7.21-8.59,13.03-7.27s9.44,6.45,8.13,12.94c-.22,1.07.47,2.13,1.4,2Z"/>
        <path class="cls-6" d="M441.08,140.68c-.55-1.03.41-2.18,1.49-1.24,2.37-4.93,7.31-7.5,11.27-7.02,6.91.85,9.98,6.29,9.95,10.59-.05,6.51-4.69,10.48-9.45,11.02-11.58,1.31-11.6-10.23-13.25-13.35Z"/>
        <path class="cls-6" d="M507.12,31.08c6.28-2,11.96,1.79,13.61,7,1.83,5.74-1.32,11.85-7.04,13.65-5.34,1.68-11.25-1.05-13.36-6.25s.2-12.3,6.79-14.4Z"/>
        <path class="cls-15" d="M67.37,404.74c3.26.06,3.08,6.18,0,6.77-1.83-1.75-1.5-4.39-1.25-6.45l-.68-.69c-1.46,5.49-7.1,8.7-12.63,7.42-5.81-1.35-9.49-7.2-8.13-12.99,1.38-5.85,7.25-9.48,13-8.11s9.4,7.26,8.13,13.14l.81.65c.15.13.43.15.77.25Z"/>
        <path class="cls-15" d="M37.89,434.31c6.22-2,11.9,1.83,13.55,6.99,1.85,5.75-1.38,11.78-7.04,13.61-5.4,1.74-11.15-1.02-13.31-6.26s.19-12.22,6.79-14.34Z"/>
        <path class="cls-15" d="M264.31,505.81l-7.83-.79c.44-1.76-.08-3.51-1.54-5.24-1.51-2.76-1.22-5.62.84-8.59,2.9-4.16,6.35-7.94,11.4-7.45s9.35,4.55,9.96,9.34c.66,5.14-2.5,10.34-7.88,11.58l-4.96,1.15Z"/>
        <path class="cls-15" d="M392,145.71l-.97,6.58-1.45-2.59c-2.75,4.66-8.17,6.77-13.21,4.64-4.63-1.95-7.79-6.98-6.53-12.33,1.12-4.74,5.63-8.67,10.98-8.43,4.62.21,8.35,3.89,10.07,8.89l1.11,3.23Z"/>
        <path class="cls-15" d="M53.86,485.39c-2.39-.82-5.14-.64-7.66-.76.92-.71,1.95-.82,3.82-1.42-4.43-2.82-6.62-7.55-5.01-12.52,1.51-4.69,6.33-8.19,11.63-7.45,4.86.68,9.03,4.95,9.28,10.11.33,6.88-4.85,10.45-12.06,12.04Z"/>
        <path class="cls-6" d="M485.43,23.44c6.19-1.93,12.26,1.75,13.63,7.03,1.51,5.86-1.29,12.08-6.99,13.75s-11.35-.96-13.46-6.31.14-12.39,6.82-14.47Z"/>
        <path class="cls-15" d="M183.95,489.18l-1.44,3.33c-1.69.24-2.54,1.83-3.86,2.89-5.85,4.71-13.81,1.6-16.37-4.55-2.61-6.25,1.47-13.05,7.64-14.48,6.65-1.54,12.89,3.5,13.15,10.52.04,1.06.47,1.79.89,2.29Z"/>
        <path class="cls-15" d="M428.06,44.89c-.24-1.78.89-4.49-.17-6.25.68-5.76,6.51-8.96,12.23-7.78,4.79.99,8.66,5.42,8.47,10.95-.17,4.85-3.74,9.45-9.25,10.26-4.59.67-10.56-1.95-11.27-7.18Z"/>
        <path class="cls-15" d="M521.56,102.33c-1.91-.4-4.64-.96-6.3-.07-5.47-.62-8.61-5.96-7.95-11.34.6-4.95,4.75-9.07,10.13-9.36,5-.27,9.83,3.06,11.06,8.3s-1.62,10.86-6.93,12.47Z"/>
        <path class="cls-6" d="M226.32,468.2c.82,1.29,2.43,1.95,3.83,3.07,4.54,3.62,4.91,9.68,1.86,14.06-2.79,4.01-7.9,5.98-12.78,3.93-4.58-1.91-7.82-6.94-6.55-12.34,1.7-7.22,7.39-7.58,12.87-9.42.3.07.59.43.76.69Z"/>
        <path class="cls-15" d="M391.25,17.07c6.1-2.04,11.76,1.91,13.45,6.97,1.88,5.63-1.51,11.68-7,13.52-5.37,1.81-11.01-1.11-13.23-6.25s.27-12.06,6.78-14.24Z"/>
        <path class="cls-15" d="M427.03-18.66c6.11-2.05,11.68,1.91,13.39,6.95,1.91,5.64-1.48,11.59-6.99,13.46s-10.95-1.11-13.16-6.23.3-12.01,6.76-14.17Z"/>
        <path class="cls-15" d="M212.44,418.13c6.09-2.05,11.71,1.91,13.41,6.96,1.88,5.61-1.53,11.64-6.99,13.48s-10.98-1.12-13.19-6.24.29-12.02,6.77-14.2Z"/>
        <path class="cls-15" d="M427.43,76.34c-.46,3.25-6.22,3.01-6.86-.1,1.19-1.89,3.7-1.14,6.65-1.63-5.38-2.25-8.78-7.21-7.43-12.82,1.26-5.22,6.41-9.05,11.87-8.23s9.53,5.7,9.21,11.11c-.35,5.84-5.38,10.67-11.72,10.04-1.35-.14-2.11.75-1.72,1.64Z"/>
        <path class="cls-15" d="M500.72,52.87c6.08-2.02,11.73,1.94,13.41,6.95,1.9,5.67-1.48,11.62-7,13.49s-10.98-1.13-13.18-6.24.28-12.04,6.78-14.2Z"/>
        <path class="cls-15" d="M442.19,82.14c6.13-2.05,11.69,1.91,13.4,6.95,1.91,5.64-1.47,11.58-6.99,13.46s-10.95-1.1-13.16-6.23.33-12.03,6.75-14.17Z"/>
        <path class="cls-15" d="M405.36,46.38c6.07-2.02,11.7,1.93,13.38,6.95,1.89,5.64-1.48,11.61-7,13.46s-10.98-1.15-13.16-6.23.28-12.02,6.77-14.18Z"/>
        <path class="cls-15" d="M493.14,74.56c6.09-2.04,11.69,1.92,13.39,6.95,1.89,5.61-1.49,11.61-6.99,13.46s-10.98-1.15-13.16-6.23c-2.26-5.26.31-12.02,6.77-14.18Z"/>
        <path class="cls-15" d="M398.85,68.04c6.08-2.02,11.73,1.94,13.41,6.95,1.9,5.66-1.5,11.63-7,13.49s-10.98-1.12-13.19-6.24c-2.27-5.27.28-12.04,6.78-14.2Z"/>
        <path class="cls-15" d="M499.65-19.72c6.11-2.04,11.66,1.89,13.36,6.94,1.9,5.63-1.47,11.57-6.98,13.42s-10.93-1.11-13.13-6.23.29-11.98,6.75-14.14Z"/>
        <path class="cls-15" d="M515.56,155.25c1.85-.31,4.63.62,6.25-.17,5.61.88,9.02,6.52,7.76,12.2-1.04,4.68-5.51,8.66-10.93,8.45-4.77-.18-9.39-3.89-10.25-9.24-.74-4.63,2.13-10.39,7.16-11.25Z"/>
        <path class="cls-15" d="M420.57,76.24l6.86.1c5.3.08,7.9,7.09,6.73,11.8s-5.63,8.7-10.91,8.42c-4.92-.26-9.39-3.97-10.2-9.24-.69-4.44,2.16-11.16,7.53-11.08Z"/>
        <path class="cls-6" d="M116.34,390.37c.39,2.4.42,4.92-.59,7.2-1.43,5.22-7.12,7.77-12.01,6.58s-8.6-5.82-8.37-10.98,4.16-9.4,9.22-10.18c5.17-.8,9.83,2.28,11.73,7.38Z"/>
        <path class="cls-15" d="M67.36,411.51v-6.77c.02-5.4,6.4-8.29,11-7.6,5.17.78,9.01,5.18,9.24,10.13s-3.42,9.71-8.36,10.92-10.82-1.44-11.87-6.68Z"/>
        <path class="cls-10" d="M147.36,397.51c6.2-1.37,11.3,2.96,12.42,8.05,1.25,5.69-2.5,11.22-8.1,12.46s-10.62-2.08-12.24-7.29,1.35-11.77,7.91-13.22Z"/>
        <path class="cls-15" d="M493.06,1.87c6.25-1.37,11.36,2.94,12.47,8.06,1.24,5.7-2.47,11.27-8.11,12.51-5.31,1.16-10.69-2.11-12.27-7.3s1.32-11.83,7.92-13.27Z"/>
        <path class="cls-15" d="M478.94,46.23c6.3-1.38,11.45,2.95,12.57,8.11,1.25,5.76-2.47,11.35-8.16,12.6s-10.76-2.06-12.37-7.33c-1.66-5.42,1.32-11.92,7.96-13.37Z"/>
        <path class="cls-15" d="M392.24,89.61c6.3-1.37,11.44,2.92,12.54,8.09,1.23,5.76-2.45,11.34-8.14,12.57s-10.75-2.04-12.35-7.32c-1.64-5.42,1.3-11.9,7.94-13.34Z"/>
        <path class="cls-10" d="M464.9,17.06c6.19-1.37,11.3,2.96,12.43,8.06,1.25,5.64-2.54,11.23-8.1,12.45s-10.63-2.08-12.24-7.29c-1.66-5.35,1.35-11.77,7.91-13.22Z"/>
        <path class="cls-10" d="M82.33,375.83c6.2-1.37,11.3,2.96,12.42,8.05,1.25,5.69-2.5,11.22-8.1,12.46s-10.62-2.08-12.24-7.29,1.35-11.77,7.91-13.22Z"/>
        <path class="cls-15" d="M420.44,2.92c6.24-1.39,11.37,2.97,12.5,8.09,1.26,5.71-2.5,11.28-8.14,12.54-5.31,1.19-10.7-2.13-12.31-7.32s1.35-11.84,7.94-13.31Z"/>
        <path class="cls-15" d="M96.4,405.07c6.26-1.37,11.36,2.94,12.47,8.06,1.24,5.71-2.48,11.27-8.11,12.5-5.37,1.17-10.67-2.06-12.28-7.3s1.33-11.82,7.91-13.27Z"/>
        <path class="cls-15" d="M125.63,389.82c6.31-1.38,11.45,2.94,12.57,8.11,1.25,5.76-2.47,11.35-8.15,12.6-5.38,1.18-10.76-2.05-12.37-7.33s1.34-11.93,7.95-13.37Z"/>
        <path class="cls-15" d="M515.85,9.51c6.16-1.38,11.27,2.98,12.38,8.03,1.25,5.66-2.52,11.18-8.09,12.42s-10.58-2.1-12.2-7.28c-1.67-5.33,1.37-11.72,7.91-13.18Z"/>
        <path class="cls-15" d="M118.11,411.63c6.16-1.38,11.27,2.98,12.38,8.03,1.25,5.66-2.52,11.18-8.09,12.42-5.3,1.19-10.58-2.1-12.2-7.28-1.67-5.33,1.37-11.72,7.91-13.18Z"/>
        <path class="cls-15" d="M398.87-4.54c6.07-1.36,11.15,3,12.28,8.04,1.25,5.58-2.56,11.09-8.08,12.33s-10.51-2.17-12.12-7.29,1.43-11.63,7.92-13.08Z"/>
        <path class="cls-15" d="M31.47,456.11c6.07-1.36,11.15,3,12.28,8.04,1.26,5.59-2.56,11.08-8.08,12.34-5.26,1.19-10.5-2.16-12.12-7.3s1.43-11.62,7.92-13.07Z"/>
        <path class="cls-15" d="M472.56,68.08c6.06-1.35,11.16,3,12.28,8.03,1.24,5.59-2.57,11.09-8.08,12.34s-10.5-2.16-12.12-7.3,1.43-11.63,7.92-13.07Z"/>
        <path class="cls-15" d="M37.3,489.25c1.07,1.02-.33,3.75-1.78,4.38-2.94,4.96-9.18,6.01-13.64,3.32s-6.49-7.93-4.55-12.7c1.99-4.91,7.33-7.93,12.63-6.3,4.54,1.39,8.26,6.08,7.35,11.3Z"/>
        <path class="cls-15" d="M371.6,83.16c6.19-.72,10.85,3.84,11.45,9.08.66,5.68-3.44,10.82-9.13,11.47-5.36.61-10.29-3-11.34-8.35s2.44-11.44,9.02-12.2Z"/>
        <path class="cls-15" d="M444.22,9.48c6.18-.72,10.82,3.83,11.42,9.06.65,5.67-3.42,10.8-9.11,11.45-5.35.61-10.27-2.99-11.31-8.33-1.06-5.42,2.43-11.41,8.99-12.17Z"/>
        <path class="cls-15" d="M18.32,500.5c6.11-.7,10.85,3.81,11.38,9.05.56,5.62-3.46,10.82-9.08,11.42s-10.26-2.98-11.29-8.32,2.41-11.38,8.99-12.14Z"/>
        <path class="cls-15" d="M445.3,154.72c6.18-.72,10.82,3.83,11.42,9.06.65,5.67-3.42,10.8-9.11,11.45-5.35.61-10.27-2.99-11.31-8.33-1.06-5.42,2.43-11.41,8.99-12.17Z"/>
        <path class="cls-15" d="M46.48,412.66c6.19-.72,10.85,3.84,11.45,9.08.66,5.68-3.44,10.82-9.13,11.47-5.36.61-10.29-3-11.34-8.35s2.44-11.44,9.02-12.2Z"/>
        <path class="cls-6" d="M220.97,396.45c6.18-.71,10.8,3.81,11.4,9.04.64,5.66-3.4,10.77-9.09,11.42-5.35.6-10.25-2.97-11.28-8.31-1.05-5.42,2.42-11.39,8.98-12.14Z"/>
        <path class="cls-6" d="M76.83,470.16c6.18-.71,10.8,3.81,11.4,9.04.64,5.66-3.4,10.77-9.09,11.42-5.35.6-10.25-2.97-11.28-8.31s2.42-11.39,8.98-12.14Z"/>
        <path class="cls-15" d="M166.83,405.08c5.65-2.56,11.46.12,13.56,4.8,2.31,5.14.27,11.3-4.85,13.59-4.81,2.16-10.61.53-13.2-4.13-2.62-4.71-1.42-11.58,4.49-14.26Z"/>
        <path class="cls-15" d="M146.25,471.24c5.64-2.53,11.42.1,13.5,4.77,2.28,5.12.28,11.25-4.83,13.53-4.76,2.13-10.56.5-13.14-4.12s-1.4-11.55,4.47-14.18Z"/>
        <path class="cls-10" d="M239.46,405.12c5.63-2.53,11.42.11,13.5,4.77,2.28,5.12.28,11.25-4.83,13.53-4.78,2.13-10.57.52-13.14-4.12s-1.4-11.55,4.47-14.18Z"/>
        <path class="cls-15" d="M21.61,406.16c5.65-2.56,11.46.12,13.56,4.8,2.31,5.14.27,11.3-4.85,13.59-4.81,2.16-10.61.53-13.2-4.13s-1.42-11.58,4.49-14.26Z"/>
        <path class="cls-15" d="M412.8,170.87c5.63-2.54,11.62.23,13.68,4.83,2.34,5.22.27,11.43-4.88,13.72-4.86,2.17-10.72.55-13.32-4.15s-1.47-11.7,4.52-14.41Z"/>
        <path class="cls-15" d="M247.06,456.1c5.62-2.51,11.4.1,13.47,4.75,2.27,5.1.27,11.23-4.82,13.49-4.78,2.12-10.55.53-13.11-4.11-2.58-4.67-1.4-11.52,4.46-14.13Z"/>
        <path class="cls-6" d="M58.44,442.96c5.67-2.6,11.49.14,13.62,4.82,2.35,5.17.26,11.33-4.87,13.66-4.84,2.2-10.64.53-13.27-4.15s-1.43-11.61,4.52-14.34Z"/>
        <path class="cls-6" d="M188.45,412.58c5.72-2.59,11.6.12,13.7,4.83,2.32,5.2.29,11.41-4.88,13.72-4.85,2.17-10.72.56-13.32-4.14-2.63-4.75-1.46-11.71,4.51-14.4Z"/>
        <path class="cls-10" d="M203.67,441.9c5.67-2.58,11.48.13,13.6,4.81,2.33,5.14.25,11.31-4.87,13.63-4.83,2.19-10.63.52-13.24-4.14s-1.42-11.61,4.5-14.3Z"/>
        <path class="cls-15" d="M57.38,370.41c5.64-2.55,11.44.12,13.53,4.78,2.3,5.13.27,11.27-4.84,13.56-4.8,2.15-10.58.53-13.17-4.13s-1.41-11.56,4.48-14.22Z"/>
        <path class="cls-6" d="M485.44,170.91c5.67-2.6,11.49.14,13.62,4.82,2.35,5.17.26,11.33-4.87,13.66-4.84,2.2-10.64.53-13.27-4.15s-1.43-11.61,4.52-14.34Z"/>
        <path class="cls-15" d="M64.99,420.33c5.62-2.51,11.4.1,13.47,4.75,2.27,5.1.27,11.23-4.82,13.49-4.78,2.12-10.55.53-13.11-4.11-2.58-4.67-1.4-11.52,4.46-14.13Z"/>
        <path class="cls-15" d="M421.5,439.71c5.68-2.6,11.49.14,13.63,4.82,2.36,5.15.24,11.31-4.88,13.66-4.83,2.22-10.64.52-13.26-4.15s-1.43-11.62,4.51-14.34Z"/>
        <path class="cls-6" d="M367.31,11.57c5.67-2.6,11.49.14,13.62,4.82,2.35,5.17.26,11.33-4.87,13.66-4.84,2.2-10.64.53-13.27-4.15s-1.43-11.61,4.52-14.34Z"/>
        <path class="cls-15" d="M138.68,420.33c5.62-2.51,11.4.1,13.47,4.75,2.27,5.1.27,11.23-4.82,13.49-4.78,2.12-10.55.53-13.11-4.11s-1.4-11.52,4.46-14.13Z"/>
        <path class="cls-15" d="M152.77,376.97c5.62-2.51,11.4.1,13.47,4.75,2.27,5.1.27,11.23-4.82,13.49-4.78,2.12-10.55.53-13.11-4.11s-1.4-11.52,4.46-14.13Z"/>
        <path class="cls-6" d="M462.68,90.7c5.67-2.6,11.49.14,13.62,4.82,2.35,5.17.26,11.33-4.87,13.66-4.84,2.2-10.64.53-13.27-4.15s-1.43-11.61,4.52-14.34Z"/>
        <path class="cls-15" d="M196.12,391.06c5.62-2.51,11.4.1,13.47,4.75,2.27,5.1.27,11.23-4.82,13.49-4.78,2.12-10.55.53-13.11-4.11-2.58-4.67-1.4-11.52,4.46-14.13Z"/>
        <path class="cls-15" d="M391.27,163.49c5.51-2.55,11.18.18,13.32,4.76,2.34,5.03.21,11.08-4.8,13.36s-10.41.48-12.99-4.1-1.35-11.33,4.47-14.02Z"/>
        <path class="cls-15" d="M29.3,384.65c5.52-2.5,11.2.12,13.29,4.73,2.28,5.03.23,11.05-4.79,13.33-4.73,2.15-10.38.48-12.95-4.1-2.58-4.61-1.34-11.33,4.45-13.96Z"/>
        <path class="cls-15" d="M109.49,435.54c5.54-2.55,11.22.15,13.35,4.76,2.33,5.05.22,11.09-4.81,13.39-4.75,2.18-10.41.48-13.01-4.11-2.63-4.64-1.36-11.36,4.48-14.04Z"/>
        <path class="cls-15" d="M448.7,61.6c5.54-2.55,11.22.15,13.35,4.76,2.33,5.05.22,11.09-4.81,13.39-4.75,2.18-10.41.48-13.01-4.11s-1.36-11.36,4.48-14.04Z"/>
        <path class="cls-15" d="M383.69,113.68c5.52-2.5,11.2.12,13.29,4.73,2.28,5.03.23,11.05-4.79,13.33-4.73,2.15-10.38.48-12.95-4.1s-1.34-11.33,4.45-13.96Z"/>
        <path class="cls-15" d="M174.51,383.51c5.54-2.55,11.22.15,13.35,4.76,2.33,5.05.22,11.09-4.81,13.39-4.75,2.18-10.41.48-13.01-4.11s-1.36-11.36,4.48-14.04Z"/>
        <path class="cls-15" d="M376.18,62.76c5.43-2.56,11,.2,13.17,4.75,2.37,4.97.15,10.9-4.79,13.24s-10.23.42-12.86-4.12c-2.67-4.59-1.29-11.15,4.49-13.87Z"/>
        <path class="cls-15" d="M15.29,429.11c5.43-2.56,11,.2,13.17,4.75,2.37,4.97.15,10.9-4.79,13.24s-10.23.42-12.86-4.12-1.29-11.15,4.49-13.87Z"/>
        <path class="cls-15" d="M132.21,369.37c5.58-2.01,10.7,1.33,12.35,5.86,1.85,5.09-.92,10.59-5.91,12.4s-9.94-.58-12.08-5.16-.25-10.97,5.64-13.1Z"/>
        <path class="cls-6" d="M198.25,463.51c5.66-2.06,10.89,1.33,12.57,5.93,1.89,5.18-.89,10.78-5.97,12.63s-10.12-.55-12.3-5.21-.3-11.16,5.7-13.35Z"/>
        <path class="cls-6" d="M470.28-3.59c5.67-2.03,10.86,1.3,12.53,5.9,1.87,5.16-.9,10.73-5.96,12.57s-10.08-.56-12.24-5.2-.29-11.13,5.68-13.27Z"/>
        <path class="cls-15" d="M161.49,427.94c5.57-1.98,10.69,1.31,12.3,5.84,1.8,5.08-.89,10.57-5.89,12.34-4.75,1.69-9.93-.56-12.03-5.14-2.15-4.7-.26-10.95,5.61-13.04Z"/>
        <path class="cls-6" d="M408.5,484.12c5.66-2.05,10.88,1.33,12.55,5.92,1.88,5.17-.89,10.76-5.97,12.61s-10.11-.56-12.28-5.21-.29-11.15,5.7-13.32Z"/>
        <path class="cls-15" d="M464.9,163.37c5.61-2.02,10.79,1.33,12.43,5.89,1.85,5.13-.9,10.66-5.93,12.48s-10.02-.56-12.16-5.18-.28-11.05,5.66-13.19Z"/>
        <path class="cls-6" d="M378.17,280.4c5.65-2.02,10.84,1.3,12.49,5.9,1.84,5.15-.88,10.72-5.94,12.54-4.82,1.72-10.08-.54-12.21-5.18-2.19-4.76-.29-11.11,5.67-13.25Z"/>
        <path class="cls-6" d="M508.24,177.44c5.63-2.02,10.81,1.32,12.46,5.9,1.85,5.14-.89,10.69-5.94,12.51s-10.05-.56-12.19-5.19-.28-11.08,5.67-13.22Z"/>
        <path class="cls-15" d="M183.12,434.37c5.62-1.99,10.78,1.3,12.4,5.87,1.81,5.12-.88,10.66-5.92,12.44-4.79,1.69-10.01-.54-12.13-5.17s-.28-11.05,5.64-13.15Z"/>
        <path class="cls-6" d="M466.03,401.43l-6.86-.14c1.68-1.71,4.05-1.02,6.98-1.51-5.37-2-8.08-7.38-6.22-12.66,1.65-4.68,6.7-7.57,11.72-6.26s8.12,5.97,7.3,11.07c-.79,4.91-5.14,8.83-10.84,8.2-1.26-.14-2.11.47-2.09,1.31Z"/>
        <path class="cls-15" d="M361.94,105.96c5.62-1.99,10.78,1.3,12.4,5.87,1.81,5.12-.88,10.66-5.92,12.44s-10.01-.54-12.13-5.17-.28-11.05,5.64-13.15Z"/>
        <path class="cls-6" d="M456.2,39.78c5.65-2.02,10.84,1.3,12.49,5.9,1.84,5.15-.88,10.72-5.94,12.54s-10.08-.54-12.21-5.18-.29-11.11,5.67-13.25Z"/>
        <path class="cls-6" d="M448.63-11.15c5.63-2.02,10.81,1.32,12.46,5.9,1.85,5.14-.89,10.69-5.94,12.51s-10.05-.56-12.19-5.19-.28-11.08,5.67-13.22Z"/>
        <path class="cls-15" d="M132.18,441.93c5.61-2.02,10.78,1.32,12.43,5.89,1.85,5.13-.9,10.66-5.93,12.48s-10.02-.56-12.16-5.18-.28-11.05,5.66-13.19Z"/>
        <path class="cls-15" d="M457.34,112.49c5.58-2.01,10.7,1.33,12.35,5.86,1.85,5.09-.92,10.59-5.91,12.4s-9.94-.58-12.08-5.16-.25-10.97,5.64-13.1Z"/>
        <path class="cls-6" d="M379.23,498.2c5.66-2.06,10.89,1.33,12.57,5.93,1.89,5.18-.89,10.78-5.97,12.63s-10.12-.55-12.3-5.21-.3-11.16,5.7-13.35Z"/>
        <path class="cls-6" d="M88.8,427.8c5.67-2.03,10.86,1.3,12.53,5.9,1.87,5.16-.9,10.73-5.96,12.57-4.83,1.75-10.08-.56-12.24-5.2s-.29-11.13,5.68-13.27Z"/>
        <path class="cls-10" d="M377.07-10.12c5.73-1.35,10.39,2.39,11.47,7.01,1.21,5.19-1.92,10.29-7.06,11.49-4.83,1.13-9.69-1.53-11.25-6.25s.79-10.83,6.84-12.26Z"/>
        <path class="cls-10" d="M384.64,39.7c5.74-1.37,10.44,2.41,11.53,7.04,1.23,5.21-1.94,10.33-7.09,11.55-4.84,1.15-9.73-1.55-11.31-6.27s.8-10.87,6.87-12.32Z"/>
        <path class="cls-10" d="M356.47,127.54c5.73-1.35,10.39,2.39,11.47,7.01,1.21,5.19-1.92,10.29-7.06,11.49-4.83,1.13-9.69-1.53-11.25-6.25-1.6-4.84.79-10.83,6.84-12.26Z"/>
        <path class="cls-10" d="M436.66,178.46c5.74-1.36,10.42,2.39,11.5,7.03,1.21,5.2-1.92,10.32-7.07,11.52-4.84,1.14-9.72-1.53-11.28-6.26s.78-10.85,6.85-12.29Z"/>
        <path class="cls-10" d="M125.62,463.5c5.74-1.37,10.44,2.41,11.53,7.04,1.23,5.21-1.94,10.33-7.09,11.55-4.84,1.15-9.73-1.55-11.31-6.27s.8-10.87,6.87-12.32Z"/>
        <path class="cls-10" d="M370.55,156.76c5.74-1.37,10.44,2.41,11.53,7.04,1.23,5.21-1.94,10.33-7.09,11.55-4.84,1.15-9.73-1.55-11.31-6.27s.8-10.87,6.87-12.32Z"/>
        <path class="cls-15" d="M363.08,33.34c5.53-1.37,10.16,2.49,11.27,6.98,1.25,5.06-2.05,10.08-7.03,11.33-4.72,1.18-9.49-1.66-11.09-6.24-1.64-4.72.9-10.6,6.84-12.07Z"/>
        <path class="cls-10" d="M124.64,318.38c5.55-1.37,10.19,2.48,11.3,6.99,1.25,5.07-2.03,10.11-7.03,11.35-4.74,1.18-9.52-1.65-11.11-6.25-1.64-4.73.88-10.63,6.85-12.1Z"/>
        <path class="cls-10" d="M10.7,450.59c5.63-.72,9.79,3.32,10.38,8,.64,5.11-2.91,9.75-8.05,10.39-4.79.6-9.22-2.49-10.25-7.27s1.92-10.36,7.91-11.13Z"/>
        <path class="cls-10" d="M111.49,362.77c5.64-.72,9.82,3.34,10.41,8.02.64,5.12-2.93,9.78-8.07,10.43-4.8.6-9.25-2.5-10.28-7.29-1.05-4.87,1.93-10.39,7.94-11.16Z"/>
        <path class="cls-15" d="M203.83,370.53c4.87-2.54,10.08-.32,12.18,3.69,2.31,4.41.67,9.95-3.74,12.24-4.14,2.16-9.26.89-11.83-3.07s-1.81-10.15,3.38-12.87Z"/>
        <path class="cls-6" d="M362.01,179.7c4.91-2.58,10.17-.32,12.29,3.71,2.35,4.46.69,10.02-3.76,12.36-4.18,2.2-9.33.91-11.93-3.08-2.64-4.04-1.85-10.23,3.39-12.99Z"/>
        <path class="cls-6" d="M456.27,186.15c4.94-2.63,10.2-.3,12.36,3.74,2.4,4.49.68,10.06-3.78,12.43-4.21,2.24-9.36.91-12-3.09-2.68-4.07-1.87-10.27,3.41-13.08Z"/>
        <path class="cls-15" d="M225.5,377.05c4.86-2.51,10.09-.34,12.17,3.68,2.28,4.4.68,9.96-3.73,12.22-4.13,2.12-9.27.9-11.81-3.06-2.56-3.99-1.8-10.17,3.37-12.84Z"/>
        <path class="cls-6" d="M7.62,379.13c4.91-2.58,10.17-.32,12.29,3.71,2.35,4.46.69,10.02-3.76,12.36-4.18,2.2-9.33.91-11.93-3.08s-1.85-10.23,3.39-12.99Z"/>
        <path class="cls-6" d="M415.09,462.54c4.94-2.63,10.2-.3,12.36,3.74,2.4,4.49.68,10.06-3.78,12.43-4.21,2.24-9.36.91-12-3.09s-1.87-10.27,3.41-13.08Z"/>
        <path class="cls-6" d="M35.78,363.9c4.94-2.63,10.2-.3,12.36,3.74,2.4,4.49.68,10.06-3.78,12.43-4.21,2.24-9.36.91-12-3.09s-1.87-10.27,3.41-13.08Z"/>
        <path class="cls-15" d="M101.95,458.34c4.86-2.51,10.09-.34,12.17,3.68,2.28,4.4.68,9.96-3.73,12.22-4.13,2.12-9.27.9-11.81-3.06s-1.8-10.17,3.37-12.84Z"/>
        <path class="cls-15" d="M152.89,450.74c4.87-2.54,10.08-.32,12.18,3.69,2.31,4.41.67,9.95-3.74,12.24-4.14,2.16-9.26.89-11.83-3.07s-1.81-10.15,3.38-12.87Z"/>
        <path class="cls-6" d="M80.25,450.69c4.9-2.57,10.14-.32,12.26,3.71,2.34,4.44.68,10-3.75,12.32-4.17,2.17-9.31.9-11.9-3.08s-1.83-10.21,3.39-12.95Z"/>
        <path class="cls-10" d="M29.27,313.05c4.99-1.94,9.67.76,11.22,4.76,1.73,4.49-.37,9.54-4.81,11.25-4.17,1.6-8.89-.07-10.91-4.08s-.75-9.88,4.5-11.92Z"/>
        <path class="cls-15" d="M36.83,291.31c5-1.98,9.71.79,11.29,4.79,1.78,4.51-.38,9.57-4.83,11.33-4.19,1.65-8.92-.08-10.98-4.1-2.11-4.11-.76-9.91,4.53-12.01Z"/>
        <path class="cls-15" d="M181.98,362.81c5.11-1.92,9.91.7,11.41,4.78,1.69,4.57-.28,9.74-4.84,11.42-4.22,1.56-9.08,0-11.08-4.1s-.82-10.1,4.51-12.11Z"/>
        <path class="cls-10" d="M399.91,288.12c4.99-1.94,9.67.76,11.22,4.76,1.73,4.49-.37,9.54-4.81,11.25-4.17,1.6-8.89-.07-10.91-4.08s-.75-9.88,4.5-11.92Z"/>
        <path class="cls-15" d="M356.46,273.88c5.1-1.98,9.9.74,11.47,4.81,1.76,4.59-.33,9.75-4.87,11.49-4.24,1.63-9.08-.03-11.14-4.12-2.1-4.17-.82-10.1,4.54-12.19Z"/>
        <path class="cls-15" d="M415.06,389.95c5-1.98,9.71.79,11.29,4.79,1.78,4.51-.38,9.57-4.83,11.33-4.19,1.65-8.92-.08-10.98-4.1-2.11-4.11-.76-9.91,4.53-12.01Z"/>
        <path class="cls-6" d="M116.93,341.04c5.11-2.01,9.93.75,11.52,4.83,1.8,4.6-.33,9.78-4.88,11.56-4.27,1.66-9.11-.03-11.2-4.13-2.13-4.18-.82-10.13,4.56-12.25Z"/>
        <path class="cls-6" d="M354.28,55.98c5.11-2.01,9.93.75,11.52,4.83,1.8,4.6-.33,9.78-4.88,11.56-4.27,1.66-9.11-.03-11.2-4.13s-.82-10.13,4.56-12.25Z"/>
        <path class="cls-6" d="M384.63,187.15c5.11-1.99,9.92.74,11.5,4.82,1.77,4.6-.32,9.77-4.87,11.52-4.25,1.64-9.1-.02-11.17-4.13s-.82-10.12,4.55-12.22Z"/>
        <path class="cls-6" d="M385.71,259.75c5.11-2.01,9.93.75,11.52,4.83,1.8,4.6-.33,9.78-4.88,11.56-4.27,1.66-9.11-.03-11.2-4.13s-.82-10.13,4.56-12.25Z"/>
        <path class="cls-10" d="M1.09,473.47c4.99-1.94,9.67.76,11.22,4.76,1.73,4.49-.37,9.54-4.81,11.25-4.17,1.6-8.89-.07-10.91-4.08s-.75-9.88,4.5-11.92Z"/>
        <path class="cls-15" d="M248.09,384.49c5.11-1.92,9.91.7,11.41,4.78,1.69,4.57-.28,9.74-4.84,11.42-4.22,1.56-9.08,0-11.08-4.1s-.82-10.1,4.51-12.11Z"/>
        <path class="cls-6" d="M175.46,457.02c5.11-2.01,9.93.75,11.52,4.83,1.8,4.6-.33,9.78-4.88,11.56-4.27,1.66-9.11-.03-11.2-4.13s-.82-10.13,4.56-12.25Z"/>
        <path class="cls-10" d="M15.16,356.38c5.01-1.95,9.71.76,11.26,4.76,1.75,4.51-.37,9.56-4.82,11.29-4.18,1.62-8.91-.07-10.95-4.09s-.76-9.91,4.51-11.96Z"/>
        <path class="cls-10" d="M357.63,492.95c5.01-1.95,9.71.76,11.26,4.76,1.75,4.51-.37,9.56-4.82,11.29-4.18,1.62-8.91-.07-10.95-4.09s-.76-9.91,4.51-11.96Z"/>
        <path class="cls-6" d="M516.83,374.61c5.12-2.02,9.96.77,11.56,4.85,1.81,4.62-.34,9.81-4.9,11.59-4.28,1.68-9.14-.04-11.24-4.15-2.14-4.2-.83-10.16,4.58-12.3Z"/>
        <path class="cls-15" d="M354.3-16.55c5.11-1.92,9.91.7,11.41,4.78,1.69,4.57-.28,9.74-4.84,11.42-4.22,1.56-9.08,0-11.08-4.1s-.82-10.1,4.51-12.11Z"/>
        <path class="cls-15" d="M478.93,193.73c5.11-1.92,9.91.7,11.41,4.78,1.69,4.57-.28,9.74-4.84,11.42-4.22,1.56-9.08,0-11.08-4.1-2.02-4.15-.82-10.1,4.51-12.11Z"/>
        <path class="cls-15" d="M444.25,375.77c5.1-1.98,9.9.74,11.47,4.81,1.76,4.59-.33,9.75-4.87,11.49-4.24,1.63-9.08-.03-11.14-4.12s-.82-10.1,4.54-12.19Z"/>
        <path class="cls-10" d="M363.13,252.39c4.88-1.99,9.49.85,11.1,4.76,1.82,4.43-.46,9.38-4.8,11.16s-8.73-.16-10.82-4.1-.69-9.7,4.52-11.83Z"/>
        <path class="cls-10" d="M255.84,435.57c4.88-1.99,9.49.85,11.1,4.76,1.82,4.43-.46,9.38-4.8,11.16s-8.73-.16-10.82-4.1-.69-9.7,4.52-11.83Z"/>
        <path class="cls-10" d="M407.83,193.5c4.71-1.04,8.89,2,10,6.09,1.24,4.57-1.5,9.2-6,10.43s-9.19-1.48-10.43-6.01,1.39-9.4,6.43-10.51Z"/>
        <path class="cls-10" d="M2.5,400.52c4.71-1.04,8.89,2,10,6.09,1.24,4.57-1.5,9.2-6,10.43s-9.19-1.48-10.43-6.01,1.39-9.4,6.43-10.51Z"/>
        <path class="cls-10" d="M349.01,150.45c4.87-1.39,9.01,2.03,10.11,5.87,1.27,4.43-1.6,8.92-5.91,10.17s-8.31-1.23-9.9-5.15c-1.66-4.09.46-9.38,5.71-10.89Z"/>
        <path class="cls-10" d="M147.43,327.12c4.87-1.39,9.01,2.03,10.11,5.87,1.27,4.43-1.6,8.92-5.91,10.17s-8.31-1.23-9.9-5.15.46-9.38,5.71-10.89Z"/>
        <path class="cls-15" d="M168.01,260.94c4.88-1.43,9.06,2.06,10.18,5.91,1.3,4.45-1.62,8.97-5.95,10.25-4.13,1.23-8.36-1.25-9.98-5.18s.45-9.44,5.75-10.98Z"/>
        <path class="cls-10" d="M16.26,283.66c4.9-1.45,9.11,2.07,10.25,5.93,1.32,4.47-1.62,9.02-5.97,10.32s-8.4-1.25-10.05-5.19.44-9.49,5.76-11.06Z"/>
        <path class="cls-10" d="M103,313.03c4.87-1.39,9.01,2.03,10.11,5.87,1.27,4.43-1.6,8.92-5.91,10.17s-8.31-1.23-9.9-5.15c-1.66-4.09.46-9.38,5.71-10.89Z"/>
        <path class="cls-10" d="M502.91,200.31c4.87-1.39,9.01,2.03,10.11,5.87,1.27,4.43-1.6,8.92-5.91,10.17s-8.31-1.23-9.9-5.15.46-9.38,5.71-10.89Z"/>
        <path class="cls-10" d="M88.91,356.38c4.87-1.39,9.01,2.03,10.11,5.87,1.27,4.43-1.6,8.92-5.91,10.17-4.11,1.19-8.31-1.23-9.9-5.15-1.66-4.09.46-9.38,5.71-10.89Z"/>
        <path class="cls-15" d="M161.49,282.6c4.89-1.44,9.08,2.06,10.22,5.91,1.32,4.45-1.63,8.98-5.96,10.29-4.14,1.24-8.37-1.25-10.01-5.19-1.72-4.1.45-9.45,5.75-11.01Z"/>
        <path class="cls-10" d="M349.01,77.83c4.87-1.39,9.01,2.03,10.11,5.87,1.27,4.43-1.6,8.92-5.91,10.17s-8.31-1.23-9.9-5.15.46-9.38,5.71-10.89Z"/>
        <path class="cls-15" d="M170.03,333.58c4.93-.75,8.65,2.9,9.24,6.88.66,4.45-2.49,8.6-6.93,9.26-4.13.62-8.05-2.08-9.09-6.16s1.49-9.18,6.79-9.98Z"/>
        <path class="cls-10" d="M191.69,341.13c5-.73,8.71,2.87,9.29,6.91.64,4.5-2.45,8.65-6.96,9.3-4.17.6-8.11-2.04-9.13-6.18-1.05-4.24,1.45-9.24,6.81-10.03Z"/>
        <path class="cls-10" d="M235.04,355.22c5-.73,8.71,2.87,9.29,6.91.64,4.5-2.45,8.65-6.96,9.3-4.17.6-8.11-2.04-9.13-6.18-1.05-4.24,1.45-9.24,6.81-10.03Z"/>
        <path class="cls-10" d="M23.71,261.98c5.01-.74,8.73,2.88,9.31,6.93.65,4.51-2.46,8.68-6.98,9.33-4.18.61-8.13-2.05-9.16-6.2s1.46-9.27,6.83-10.06Z"/>
        <path class="cls-15" d="M173.49,313.08c4.25-2.5,9.08-.79,11.09,2.63,2.23,3.81,1.14,8.91-2.68,11.14-3.53,2.06-8.2,1.3-10.68-2.04s-2.26-9.06,2.28-11.74Z"/>
        <path class="cls-15" d="M494.24,369.41c4.27-2.51,9.17-.82,11.17,2.62,2.23,3.83,1.16,8.98-2.67,11.23-3.55,2.07-8.27,1.33-10.76-2.03s-2.29-9.14,2.26-11.81Z"/>
        <path class="cls-15" d="M-6.41,496.26c4.25-2.5,9.08-.79,11.09,2.63,2.23,3.81,1.14,8.91-2.68,11.14-3.53,2.06-8.2,1.3-10.68-2.04s-2.26-9.06,2.28-11.74Z"/>
        <path class="cls-15" d="M137.73,349.93c4.25-2.5,9.08-.79,11.09,2.63,2.23,3.81,1.14,8.91-2.68,11.14-3.53,2.06-8.2,1.3-10.68-2.04s-2.26-9.06,2.28-11.74Z"/>
        <path class="cls-15" d="M196.25,320.67c4.25-2.5,9.08-.79,11.09,2.63,2.23,3.81,1.14,8.91-2.68,11.14-3.53,2.06-8.2,1.3-10.68-2.04s-2.26-9.06,2.28-11.74Z"/>
        <path class="cls-15" d="M345.81,6.34c4.25-2.5,9.08-.79,11.09,2.63,2.23,3.81,1.14,8.91-2.68,11.14-3.53,2.06-8.2,1.3-10.68-2.04s-2.26-9.06,2.28-11.74Z"/>
        <path class="cls-15" d="M269.95,464.82c4.25-2.5,9.08-.79,11.09,2.63,2.23,3.81,1.14,8.91-2.68,11.14-3.53,2.06-8.2,1.3-10.68-2.04s-2.26-9.06,2.28-11.74Z"/>
        <path class="cls-15" d="M427.1,202.56c4.24-2.47,9.08-.8,11.06,2.61,2.2,3.79,1.14,8.9-2.68,11.11-3.51,2.03-8.18,1.3-10.65-2.03s-2.25-9.06,2.26-11.69Z"/>
        <path class="cls-15" d="M42.36,270.81c4.25-2.5,9.08-.79,11.09,2.63,2.23,3.81,1.14,8.91-2.68,11.14-3.53,2.06-8.2,1.3-10.68-2.04s-2.26-9.06,2.28-11.74Z"/>
        <path class="cls-15" d="M407.59,412.83c4.24-2.47,9.08-.8,11.06,2.61,2.2,3.79,1.14,8.9-2.68,11.11-3.51,2.03-8.18,1.3-10.65-2.03s-2.25-9.06,2.26-11.69Z"/>
        <path class="cls-10" d="M348.91,297.78c4.43-1.96,8.78.24,10.29,3.71,1.71,3.94.15,8.61-3.77,10.32-3.61,1.57-7.93.4-9.93-3.06s-1.27-8.91,3.41-10.98Z"/>
        <path class="cls-15" d="M211.22,348.64c4.5-1.98,8.92.23,10.43,3.74,1.72,3.99.17,8.74-3.8,10.45-3.65,1.58-8.05.43-10.06-3.07s-1.3-9.04,3.43-11.12Z"/>
        <path class="cls-15" d="M50.81,321.51c4.51-2,8.94.24,10.47,3.76,1.75,4.01.17,8.76-3.81,10.5-3.67,1.6-8.07.42-10.11-3.08s-1.31-9.06,3.45-11.17Z"/>
        <path class="cls-6" d="M7.81,307.18c4.24-1.59,8.61.33,10.18,3.97,1.74,4.02.2,8.83-3.83,10.59s-8.81.2-10.58-3.84-.31-9.02,4.23-10.72Z"/>
        <path class="cls-10" d="M58.47,298.86c4.43-1.96,8.78.24,10.29,3.71,1.71,3.94.15,8.61-3.77,10.32-3.61,1.57-7.93.4-9.93-3.06s-1.27-8.91,3.41-10.98Z"/>
        <path class="cls-15" d="M365.12,471.16c4.49-1.95,8.89.21,10.39,3.72,1.69,3.97.18,8.71-3.78,10.4-3.64,1.55-8.03.43-10.02-3.06s-1.29-9.02,3.41-11.07Z"/>
        <path class="cls-15" d="M-6.61,423.47c4.49-1.95,8.89.21,10.39,3.72,1.69,3.97.18,8.71-3.78,10.4-3.64,1.55-8.03.43-10.02-3.06s-1.29-9.02,3.41-11.07Z"/>
        <path class="cls-15" d="M386.79,478.71c4.5-1.98,8.92.23,10.43,3.74,1.72,3.99.17,8.74-3.8,10.45-3.65,1.58-8.05.43-10.06-3.07s-1.3-9.04,3.43-11.12Z"/>
        <path class="cls-15" d="M407.37,267.32c4.51-2,8.94.24,10.47,3.76,1.75,4.01.17,8.76-3.81,10.5-3.67,1.6-8.07.42-10.11-3.08s-1.31-9.06,3.45-11.17Z"/>
        <path class="cls-15" d="M115.88,269.58c4.46-1.95,8.83.23,10.33,3.71,1.7,3.95.17,8.66-3.77,10.36-3.62,1.56-7.98.42-9.97-3.05-2.02-3.52-1.28-8.96,3.41-11.01Z"/>
        <path class="cls-10" d="M182.02,291.28c4.43-1.96,8.78.24,10.29,3.71,1.71,3.94.15,8.61-3.77,10.32-3.61,1.57-7.93.4-9.93-3.06s-1.27-8.91,3.41-10.98Z"/>
        <path class="cls-15" d="M160.63,355.98c4.23-1.58,8.59.33,10.15,3.96,1.72,4.01.2,8.81-3.82,10.55s-8.8.21-10.55-3.82c-1.69-3.91-.31-9,4.21-10.68Z"/>
        <path class="cls-6" d="M22.98,335.36c4.24-1.59,8.61.33,10.18,3.97,1.74,4.02.2,8.83-3.83,10.59-4,1.75-8.81.2-10.58-3.84s-.31-9.02,4.23-10.72Z"/>
        <path class="cls-15" d="M370.54,304.24c4.49-1.95,8.89.21,10.39,3.72,1.69,3.97.18,8.71-3.78,10.4-3.64,1.55-8.03.43-10.02-3.06s-1.29-9.02,3.41-11.07Z"/>
        <path class="cls-15" d="M138.95,276.85c4.23-1.58,8.59.33,10.15,3.96,1.72,4.01.2,8.81-3.82,10.55s-8.8.21-10.55-3.82c-1.69-3.91-.31-9,4.21-10.68Z"/>
        <path class="cls-10" d="M44.38,343.3c4.43-1.96,8.78.24,10.29,3.71,1.71,3.94.15,8.61-3.77,10.32-3.61,1.57-7.93.4-9.93-3.06-2.03-3.51-1.27-8.91,3.41-10.98Z"/>
        <path class="cls-10" d="M211.41,276.24c4.27-1.96,8.46.31,10.02,3.68,1.77,3.83.05,8.34-3.73,10.08-3.56,1.64-7.67.31-9.7-3.05s-1.19-8.6,3.41-10.71Z"/>
        <path class="cls-10" d="M-6.43,351.02c4.27-1.96,8.46.31,10.02,3.68,1.77,3.83.05,8.34-3.73,10.08-3.56,1.64-7.67.31-9.7-3.05s-1.19-8.6,3.41-10.71Z"/>
        <path class="cls-15" d="M255.83,364c4.28-1.99,8.47.32,10.06,3.7,1.8,3.85.05,8.35-3.74,10.12-3.57,1.67-7.69.31-9.74-3.05-2.1-3.45-1.2-8.61,3.42-10.77Z"/>
        <path class="cls-15" d="M131.15,298.93c4.33-1.99,8.58.29,10.14,3.7,1.78,3.88.09,8.45-3.74,10.2-3.59,1.64-7.77.35-9.81-3.05-2.08-3.47-1.23-8.71,3.41-10.84Z"/>
        <path class="cls-15" d="M152.85,306.53c4.31-1.99,8.53.31,10.11,3.7,1.8,3.87.06,8.4-3.75,10.17-3.58,1.66-7.73.32-9.78-3.06s-1.22-8.66,3.42-10.81Z"/>
        <path class="cls-10" d="M422.74,369.45c4.27-1.96,8.46.31,10.02,3.68,1.77,3.83.05,8.34-3.73,10.08-3.56,1.64-7.67.31-9.7-3.05s-1.19-8.6,3.41-10.71Z"/>
        <path class="cls-15" d="M80.26,306.55c4.28-1.99,8.47.32,10.06,3.7,1.8,3.85.05,8.35-3.74,10.12-3.57,1.67-7.69.31-9.74-3.05s-1.2-8.61,3.42-10.77Z"/>
        <path class="cls-15" d="M66.17,349.91c4.28-1.99,8.47.32,10.06,3.7,1.8,3.85.05,8.35-3.74,10.12-3.57,1.67-7.69.31-9.74-3.05s-1.2-8.61,3.42-10.77Z"/>
        <path class="cls-15" d="M.04,329.29c4.31-1.99,8.53.31,10.11,3.7,1.8,3.87.06,8.4-3.75,10.17-3.58,1.66-7.73.32-9.78-3.06s-1.22-8.67,3.42-10.81Z"/>
        <path class="cls-15" d="M285.09,494.06c4.28-1.99,8.47.32,10.06,3.7,1.8,3.85.05,8.35-3.74,10.12-3.57,1.67-7.69.31-9.74-3.05s-1.2-8.61,3.42-10.77Z"/>
        <path class="cls-15" d="M225.46,305.45c4.31-1.99,8.53.31,10.11,3.7,1.8,3.87.06,8.4-3.75,10.17-3.58,1.66-7.73.32-9.78-3.06s-1.22-8.66,3.42-10.81Z"/>
        <path class="cls-10" d="M450.92,209.04c4.27-1.96,8.46.31,10.02,3.68,1.77,3.83.05,8.34-3.73,10.08-3.56,1.64-7.67.31-9.7-3.05s-1.19-8.6,3.41-10.71Z"/>
        <path class="cls-15" d="M189.7,269.68c4.31-1.99,8.53.31,10.11,3.7,1.8,3.87.06,8.4-3.75,10.17-3.58,1.66-7.73.32-9.78-3.06s-1.22-8.66,3.42-10.81Z"/>
        <path class="cls-15" d="M109.5,291.36c4.31-1.99,8.53.31,10.11,3.7,1.8,3.87.06,8.4-3.75,10.17-3.58,1.66-7.73.32-9.78-3.06s-1.22-8.67,3.42-10.81Z"/>
        <path class="cls-10" d="M95.45,335.85c4.27-1.96,8.46.31,10.02,3.68,1.77,3.83.05,8.34-3.73,10.08-3.56,1.64-7.67.31-9.7-3.05-2.07-3.44-1.19-8.6,3.41-10.71Z"/>
        <path class="cls-12" d="M481.19,267.49c4.38-1.35,8.06,1.44,9.09,4.8,1.19,3.9-1.01,7.94-4.85,9.12-3.57,1.1-7.33-.67-8.83-4.09s-.11-8.38,4.59-9.83Z"/>
        <path class="cls-12" d="M73.7,255.56c4.38-1.35,8.06,1.44,9.09,4.8,1.19,3.9-1.01,7.94-4.85,9.12-3.57,1.1-7.33-.67-8.83-4.09s-.11-8.38,4.59-9.83Z"/>
        <path class="cls-15" d="M67.14,277.1c4.42-1.44,8.19,1.49,9.28,4.87,1.28,3.96-1.06,8.07-4.91,9.34-3.63,1.19-7.44-.71-9.03-4.14s-.12-8.5,4.66-10.06Z"/>
        <path class="cls-10" d="M430.24,275.04c4.38-1.38,8.09,1.45,9.13,4.81,1.21,3.91-1.02,7.96-4.85,9.17-3.58,1.12-7.35-.68-8.87-4.09s-.12-8.4,4.6-9.88Z"/>
        <path class="cls-10" d="M416.15,318.37c4.38-1.4,8.1,1.47,9.16,4.83,1.24,3.92-1.04,7.99-4.87,9.21-3.59,1.15-7.37-.7-8.91-4.11s-.11-8.42,4.62-9.93Z"/>
        <path class="cls-10" d="M502.86,273.96c4.38-1.38,8.09,1.45,9.13,4.81,1.21,3.91-1.02,7.96-4.85,9.17-3.58,1.12-7.35-.68-8.87-4.09s-.12-8.4,4.6-9.88Z"/>
        <path class="cls-12" d="M356.56,202.45c4.38-1.35,8.06,1.44,9.09,4.8,1.19,3.9-1.01,7.94-4.85,9.12-3.57,1.1-7.33-.67-8.83-4.09-1.56-3.54-.11-8.38,4.59-9.83Z"/>
        <path class="cls-10" d="M365.19,398.51c4.4-1.43,8.16,1.49,9.24,4.86,1.27,3.95-1.05,8.04-4.9,9.3-3.62,1.18-7.42-.7-8.99-4.13s-.12-8.47,4.65-10.02Z"/>
        <path class="cls-10" d="M394.48,311.9c4.38-1.38,8.09,1.45,9.13,4.81,1.21,3.91-1.02,7.96-4.85,9.17-3.58,1.12-7.35-.68-8.87-4.09s-.12-8.4,4.6-9.88Z"/>
        <path class="cls-12" d="M402.08,362.87c4.38-1.35,8.06,1.44,9.09,4.8,1.19,3.9-1.01,7.94-4.85,9.12-3.57,1.1-7.33-.67-8.83-4.09-1.56-3.54-.11-8.38,4.59-9.83Z"/>
        <path class="cls-12" d="M-6.5,278.32c4.38-1.35,8.06,1.44,9.09,4.8,1.19,3.9-1.01,7.94-4.85,9.12-3.57,1.1-7.33-.67-8.83-4.09s-.11-8.38,4.59-9.83Z"/>
        <path class="cls-15" d="M393.35,239.16c4.42-1.44,8.19,1.49,9.28,4.87,1.29,3.96-1.06,8.07-4.91,9.34-3.63,1.19-7.44-.71-9.03-4.14s-.12-8.5,4.66-10.06Z"/>
        <path class="cls-10" d="M219.99,327.04c4.38-1.4,8.1,1.47,9.16,4.83,1.24,3.92-1.04,7.99-4.87,9.21-3.59,1.15-7.37-.7-8.91-4.11s-.11-8.42,4.62-9.93Z"/>
        <path class="cls-10" d="M422.66,296.72c4.38-1.38,8.09,1.45,9.13,4.81,1.21,3.91-1.02,7.96-4.85,9.17-3.58,1.12-7.35-.68-8.87-4.09-1.58-3.55-.12-8.4,4.6-9.88Z"/>
        <path class="cls-12" d="M52.03,249.06c4.38-1.35,8.06,1.44,9.09,4.8,1.19,3.9-1.01,7.94-4.85,9.12-3.57,1.1-7.33-.67-8.83-4.09s-.11-8.38,4.59-9.83Z"/>
        <path class="cls-10" d="M387.97,406.16c4.38-1.4,8.1,1.47,9.16,4.83,1.24,3.92-1.04,7.99-4.87,9.21-3.59,1.15-7.37-.7-8.91-4.11-1.61-3.56-.11-8.42,4.62-9.93Z"/>
        <path class="cls-15" d="M204.77,297.66c4.43-1.45,8.22,1.51,9.32,4.88,1.3,3.97-1.06,8.12-4.92,9.38s-7.47-.7-9.07-4.15-.14-8.53,4.67-10.11Z"/>
        <path class="cls-15" d="M95.31,262.98c4.43-1.45,8.22,1.51,9.32,4.88,1.3,3.97-1.06,8.12-4.92,9.38s-7.47-.7-9.07-4.15-.14-8.53,4.67-10.11Z"/>
        <path class="cls-10" d="M241.67,334.66c4.38-1.38,8.09,1.45,9.13,4.81,1.21,3.91-1.02,7.96-4.85,9.17-3.58,1.12-7.35-.68-8.87-4.09s-.12-8.4,4.6-9.88Z"/>
        <path class="cls-10" d="M240.59,262.04c4.38-1.38,8.09,1.45,9.13,4.81,1.21,3.91-1.02,7.96-4.85,9.17-3.58,1.12-7.35-.68-8.87-4.09s-.12-8.4,4.6-9.88Z"/>
        <path class="cls-10" d="M474.67,361.72c4.38-1.4,8.1,1.47,9.16,4.83,1.24,3.92-1.04,7.99-4.87,9.21-3.59,1.15-7.37-.7-8.91-4.11s-.11-8.42,4.62-9.93Z"/>
        <path class="cls-10" d="M264.42,413.75c4.38-1.4,8.1,1.47,9.16,4.83,1.24,3.92-1.04,7.99-4.87,9.21-3.59,1.15-7.37-.7-8.91-4.11s-.11-8.42,4.62-9.93Z"/>
        <path class="cls-10" d="M342.45,174.21c4.38-1.4,8.1,1.47,9.16,4.83,1.24,3.92-1.04,7.99-4.87,9.21-3.59,1.15-7.37-.7-8.91-4.11s-.11-8.42,4.62-9.93Z"/>
        <path class="cls-10" d="M218.91,254.45c4.38-1.38,8.09,1.45,9.13,4.81,1.21,3.91-1.02,7.96-4.85,9.17-3.58,1.12-7.35-.68-8.87-4.09s-.12-8.4,4.6-9.88Z"/>
        <path class="cls-10" d="M74.77,328.15c4.38-1.38,8.09,1.45,9.13,4.81,1.21,3.91-1.02,7.96-4.85,9.17-3.58,1.12-7.35-.68-8.87-4.09s-.12-8.4,4.6-9.88Z"/>
        <path class="cls-15" d="M234.04,283.6c4.42-1.44,8.19,1.49,9.28,4.87,1.29,3.96-1.06,8.07-4.91,9.34-3.63,1.19-7.44-.71-9.03-4.14-1.66-3.59-.12-8.5,4.66-10.06Z"/>
        <path class="cls-10" d="M1.08,256.62c4.38-1.38,8.09,1.45,9.13,4.81,1.21,3.91-1.02,7.96-4.85,9.17-3.58,1.12-7.35-.68-8.87-4.09s-.12-8.4,4.6-9.88Z"/>
        <path class="cls-10" d="M394.48,384.52c4.38-1.38,8.09,1.45,9.13,4.81,1.21,3.91-1.02,7.96-4.85,9.17-3.58,1.12-7.35-.68-8.87-4.09s-.12-8.4,4.6-9.88Z"/>
        <path class="cls-15" d="M146.25,255.39c4.43-1.45,8.22,1.51,9.32,4.88,1.3,3.97-1.06,8.12-4.92,9.38s-7.47-.7-9.07-4.15-.14-8.53,4.67-10.11Z"/>
        <path class="cls-15" d="M88.81,284.65c4.43-1.45,8.22,1.51,9.32,4.88,1.3,3.97-1.06,8.12-4.92,9.38s-7.47-.7-9.07-4.15-.14-8.53,4.67-10.11Z"/>
        <path class="cls-7" d="M474.95,289c4.05-.43,7.26,2.36,7.83,5.93.63,3.92-1.95,7.6-5.89,8.23s-7.59-1.95-8.23-5.9c-.62-3.84,1.91-7.79,6.29-8.26Z"/>
        <path class="cls-10" d="M496.63,222.92c4.02-.43,7.22,2.35,7.79,5.91.63,3.89-1.95,7.56-5.87,8.19-3.89.63-7.55-1.95-8.18-5.88s1.91-7.75,6.26-8.21Z"/>
        <path class="cls-7" d="M496.62,296.59c4.05-.43,7.26,2.36,7.83,5.93.63,3.92-1.95,7.6-5.89,8.23s-7.59-1.95-8.23-5.9,1.91-7.79,6.29-8.26Z"/>
        <path class="cls-7" d="M454.35,354.04c4.05-.43,7.26,2.36,7.83,5.93.63,3.92-1.95,7.6-5.89,8.23s-7.59-1.95-8.23-5.9,1.91-7.79,6.29-8.26Z"/>
        <path class="cls-12" d="M374.15,376.77c4.07-.44,7.29,2.37,7.87,5.95.64,3.94-1.95,7.63-5.92,8.27s-7.62-1.95-8.27-5.93,1.92-7.82,6.31-8.29Z"/>
        <path class="cls-7" d="M342.73,27.79c4.05-.43,7.26,2.36,7.83,5.93.63,3.92-1.95,7.6-5.89,8.23s-7.59-1.95-8.23-5.9,1.91-7.79,6.29-8.26Z"/>
        <path class="cls-10" d="M198.6,247.85c4.02-.43,7.22,2.35,7.79,5.91.63,3.89-1.95,7.56-5.87,8.19s-7.55-1.95-8.18-5.88,1.91-7.75,6.26-8.21Z"/>
        <path class="cls-12" d="M31.68,241.28c4.07-.44,7.29,2.37,7.87,5.95.64,3.93-1.95,7.63-5.92,8.27s-7.62-1.95-8.27-5.93,1.92-7.82,6.31-8.29Z"/>
        <path class="cls-12" d="M453.26,281.39c4.07-.44,7.29,2.37,7.87,5.95.64,3.94-1.95,7.63-5.92,8.27s-7.62-1.95-8.27-5.93c-.63-3.85,1.92-7.82,6.31-8.29Z"/>
        <path class="cls-10" d="M403.43,435.36c4.02-.43,7.22,2.35,7.79,5.91.63,3.89-1.95,7.56-5.87,8.19s-7.55-1.95-8.18-5.88,1.91-7.75,6.26-8.21Z"/>
        <path class="cls-10" d="M343.82,246.77c4.02-.43,7.22,2.35,7.79,5.91.63,3.89-1.95,7.56-5.87,8.19s-7.55-1.95-8.18-5.88,1.91-7.75,6.26-8.21Z"/>
        <path class="cls-10" d="M345.99,464.63c4.02-.43,7.22,2.35,7.79,5.91.63,3.89-1.95,7.56-5.87,8.19s-7.55-1.95-8.18-5.88,1.91-7.75,6.26-8.21Z"/>
        <path class="cls-10" d="M431.6,347.57c4.02-.43,7.22,2.35,7.79,5.91.63,3.89-1.95,7.56-5.87,8.19s-7.55-1.95-8.18-5.88,1.91-7.75,6.26-8.21Z"/>
        <path class="cls-7" d="M409.92,339.95c4.05-.43,7.26,2.36,7.83,5.93.63,3.92-1.95,7.6-5.89,8.23s-7.59-1.95-8.23-5.9c-.62-3.84,1.91-7.79,6.29-8.26Z"/>
        <path class="cls-10" d="M249.53,312.88c4.02-.43,7.22,2.35,7.79,5.91.63,3.89-1.95,7.56-5.87,8.19s-7.55-1.95-8.18-5.88,1.91-7.75,6.26-8.21Z"/>
        <path class="cls-10" d="M338.4,486.31c4.02-.43,7.22,2.35,7.79,5.91.63,3.89-1.95,7.56-5.87,8.19s-7.55-1.95-8.18-5.88c-.62-3.82,1.91-7.75,6.26-8.21Z"/>
        <path class="cls-7" d="M424.01,223.97c4.05-.43,7.26,2.36,7.83,5.93.63,3.92-1.95,7.6-5.89,8.23s-7.59-1.95-8.23-5.9c-.62-3.84,1.91-7.79,6.29-8.26Z"/>
        <path class="cls-12" d="M396.91,456.98c4.07-.44,7.29,2.37,7.87,5.95.64,3.94-1.95,7.63-5.92,8.27s-7.62-1.95-8.27-5.93,1.92-7.82,6.31-8.29Z"/>
        <path class="cls-7" d="M342.73,100.41c4.05-.43,7.26,2.36,7.83,5.93.63,3.92-1.95,7.6-5.89,8.23s-7.59-1.95-8.23-5.9,1.91-7.79,6.29-8.26Z"/>
        <path class="cls-6" d="M352.14,370.46c4.25-.75,7.5,2.44,8.08,5.79.66,3.8-2.04,7.45-5.84,8.12-3.51.62-6.9-1.65-7.93-5.09s1.03-8,5.69-8.82Z"/>
        <path class="cls-6" d="M446.43,304.34c4.25-.75,7.5,2.44,8.08,5.79.66,3.8-2.04,7.45-5.84,8.12-3.51.62-6.9-1.65-7.93-5.09s1.03-8,5.69-8.82Z"/>
        <path class="cls-6" d="M517.96,230.64c4.25-.75,7.5,2.44,8.08,5.79.66,3.8-2.04,7.45-5.84,8.12-3.51.62-6.9-1.65-7.93-5.09s1.03-8,5.69-8.82Z"/>
        <path class="cls-6" d="M125.64,247.98c4.25-.75,7.5,2.44,8.08,5.79.66,3.8-2.04,7.45-5.84,8.12-3.51.62-6.9-1.65-7.93-5.09s1.03-8,5.69-8.82Z"/>
        <path class="cls-6" d="M460.52,259.9c4.25-.75,7.5,2.44,8.08,5.79.66,3.8-2.04,7.45-5.84,8.12-3.51.62-6.9-1.65-7.93-5.09-1.06-3.55,1.03-8,5.69-8.82Z"/>
        <path class="cls-15" d="M378.09,210.9c3.9-2.05,7.93-.23,9.45,2.71,1.77,3.43.63,7.73-2.76,9.49-3.1,1.62-7.01.83-9.04-2.06-2.07-2.95-1.79-7.96,2.35-10.14Z"/>
        <path class="cls-15" d="M370.52,232.61c3.87-2.03,7.9-.24,9.4,2.69,1.75,3.41.62,7.7-2.74,9.45-3.08,1.6-6.98.83-9-2.05-2.05-2.93-1.78-7.92,2.34-10.08Z"/>
        <path class="cls-15" d="M356.45,348.63c3.85-2.01,7.85-.24,9.35,2.67,1.73,3.38.63,7.66-2.72,9.39-3.06,1.58-6.94.83-8.94-2.03s-1.77-7.88,2.32-10.02Z"/>
        <path class="cls-15" d="M306.6,502.54c3.85-2.01,7.85-.24,9.35,2.67,1.73,3.38.63,7.66-2.72,9.39-3.06,1.58-6.94.83-8.94-2.03-2.03-2.91-1.77-7.88,2.32-10.02Z"/>
        <path class="cls-15" d="M487.55,319.29c3.9-2.05,7.93-.23,9.45,2.71,1.77,3.43.63,7.73-2.76,9.49-3.1,1.62-7.01.83-9.04-2.06s-1.79-7.96,2.35-10.14Z"/>
        <path class="cls-15" d="M501.68,347.54c3.85-2.01,7.85-.24,9.35,2.67,1.73,3.38.63,7.66-2.72,9.39-3.06,1.58-6.94.83-8.94-2.03s-1.77-7.88,2.32-10.02Z"/>
        <path class="cls-15" d="M269.73,393.03c3.87-2.03,7.9-.24,9.4,2.69,1.75,3.41.62,7.7-2.74,9.45-3.08,1.6-6.98.83-9-2.05s-1.78-7.92,2.34-10.08Z"/>
        <path class="cls-15" d="M342.34,393.03c3.87-2.03,7.9-.24,9.4,2.69,1.75,3.41.62,7.7-2.74,9.45-3.08,1.6-6.98.83-9-2.05s-1.78-7.92,2.34-10.08Z"/>
        <path class="cls-15" d="M314.19,479.78c3.85-2.01,7.85-.24,9.35,2.67,1.73,3.38.63,7.66-2.72,9.39-3.06,1.58-6.94.83-8.94-2.03s-1.77-7.88,2.32-10.02Z"/>
        <path class="cls-15" d="M472.38,217.4c3.9-2.05,7.93-.23,9.45,2.71,1.77,3.43.63,7.73-2.76,9.49-3.1,1.62-7.01.83-9.04-2.06s-1.79-7.96,2.35-10.14Z"/>
        <path class="cls-15" d="M458.32,333.45c3.85-2.01,7.85-.24,9.35,2.67,1.73,3.38.63,7.66-2.72,9.39-3.06,1.58-6.94.83-8.94-2.03s-1.77-7.88,2.32-10.02Z"/>
        <path class="cls-15" d="M465.88,311.7c3.9-2.05,7.93-.23,9.45,2.71,1.77,3.43.63,7.73-2.76,9.49-3.1,1.62-7.01.83-9.04-2.06s-1.79-7.96,2.35-10.14Z"/>
        <path class="cls-15" d="M292.51,473.27c3.85-2.01,7.85-.24,9.35,2.67,1.73,3.38.63,7.66-2.72,9.39-3.06,1.58-6.94.83-8.94-2.03-2.03-2.91-1.77-7.88,2.32-10.02Z"/>
        <path class="cls-15" d="M357.5,422.26c3.9-2.05,7.93-.23,9.45,2.71,1.77,3.43.63,7.73-2.76,9.49-3.1,1.62-7.01.83-9.04-2.06s-1.79-7.96,2.35-10.14Z"/>
        <path class="cls-15" d="M435.55,254.29c3.87-2.03,7.9-.24,9.4,2.69,1.75,3.41.62,7.7-2.74,9.45-3.08,1.6-6.98.83-9-2.05s-1.78-7.92,2.34-10.08Z"/>
        <path class="cls-15" d="M436.63,326.91c3.87-2.03,7.9-.24,9.4,2.69,1.75,3.41.62,7.7-2.74,9.45-3.08,1.6-6.98.83-9-2.05s-1.78-7.92,2.34-10.08Z"/>
        <path class="cls-15" d="M509.23,253.17c3.9-2.05,7.93-.23,9.45,2.71,1.77,3.43.63,7.73-2.76,9.49-3.1,1.62-7.01.83-9.04-2.06s-1.79-7.96,2.35-10.14Z"/>
        <path class="cls-15" d="M364.02,326.91c3.87-2.03,7.9-.24,9.4,2.69,1.75,3.41.62,7.7-2.74,9.45-3.08,1.6-6.98.83-9-2.05s-1.78-7.92,2.34-10.08Z"/>
        <path class="cls-15" d="M486.48,246.7c3.87-2.03,7.9-.24,9.4,2.69,1.75,3.41.62,7.7-2.74,9.45-3.08,1.6-6.98.83-9-2.05s-1.78-7.92,2.34-10.08Z"/>
        <path class="cls-15" d="M413.87,246.7c3.87-2.03,7.9-.24,9.4,2.69,1.75,3.41.62,7.7-2.74,9.45-3.08,1.6-6.98.83-9-2.05s-1.78-7.92,2.34-10.08Z"/>
        <path class="cls-15" d="M509.24,325.83c3.87-2.03,7.9-.24,9.4,2.69,1.75,3.41.62,7.7-2.74,9.45-3.08,1.6-6.98.83-9-2.05s-1.78-7.92,2.34-10.08Z"/>
        <path class="cls-15" d="M443.15,232.65c3.85-2.01,7.85-.24,9.35,2.67,1.73,3.38.63,7.66-2.72,9.39-3.06,1.58-6.94.83-8.94-2.03s-1.77-7.88,2.32-10.02Z"/>
        <path class="cls-15" d="M-7.59,206.78c3.73-1.95,7.63-.24,9.11,2.63,1.69,3.28.59,7.46-2.68,9.15-2.99,1.54-6.77.79-8.72-2.02s-1.71-7.67,2.3-9.77Z"/>
        <path class="cls-15" d="M378.2,356.28c3.77-2,7.68-.22,9.2,2.66,1.75,3.33.59,7.51-2.71,9.25-3.03,1.59-6.81.8-8.81-2.03s-1.74-7.72,2.32-9.88Z"/>
        <path class="cls-10" d="M225.47,233.96c3.68-1.9,7.54-.24,8.98,2.6,1.64,3.23.58,7.38-2.66,9.02-2.94,1.49-6.69.77-8.6-2s-1.67-7.59,2.28-9.62Z"/>
        <path class="cls-6" d="M7.54,234.86c3.78-2.02,7.71-.21,9.24,2.67,1.77,3.35.59,7.53-2.72,9.29-3.05,1.62-6.83.8-8.85-2.04s-1.75-7.74,2.33-9.92Z"/>
        <path class="cls-15" d="M80.2,234.96c3.73-1.95,7.63-.24,9.11,2.63,1.69,3.28.59,7.46-2.68,9.15-2.99,1.54-6.77.79-8.72-2.02s-1.71-7.67,2.3-9.77Z"/>
        <path class="cls-15" d="M328.35,436.49c3.77-2,7.68-.22,9.2,2.66,1.75,3.33.59,7.51-2.71,9.25-3.03,1.59-6.81.8-8.81-2.03-2.04-2.88-1.74-7.72,2.32-9.88Z"/>
        <path class="cls-6" d="M464.89,239.2c3.78-2.02,7.71-.21,9.24,2.67,1.77,3.35.59,7.53-2.72,9.29-3.05,1.62-6.83.8-8.85-2.04s-1.75-7.74,2.33-9.92Z"/>
        <path class="cls-10" d="M94.39,191.71c3.65-1.9,7.44-.19,8.89,2.62,1.66,3.22.54,7.28-2.68,8.94-2.93,1.51-6.6.74-8.52-2.02s-1.64-7.49,2.3-9.54Z"/>
        <path class="cls-10" d="M21.68,191.64c3.73-1.92,7.62-.24,9.08,2.61,1.67,3.28.58,7.45-2.68,9.12-2.98,1.52-6.75.78-8.69-2.01s-1.7-7.66,2.29-9.71Z"/>
        <path class="cls-10" d="M298.13,306.61c3.65-1.9,7.44-.19,8.89,2.62,1.66,3.22.54,7.28-2.68,8.94-2.93,1.51-6.6.74-8.52-2.02s-1.64-7.49,2.3-9.54Z"/>
        <path class="cls-10" d="M247.1,241.49c3.73-1.92,7.62-.24,9.08,2.61,1.67,3.28.58,7.45-2.68,9.12-2.98,1.52-6.75.78-8.69-2.01s-1.7-7.66,2.29-9.71Z"/>
        <path class="cls-6" d="M101.83,242.45c3.78-2.02,7.71-.21,9.24,2.67,1.77,3.35.59,7.53-2.72,9.29-3.05,1.62-6.83.8-8.85-2.04s-1.75-7.74,2.33-9.92Z"/>
        <path class="cls-10" d="M131.24,227.48c3.65-1.9,7.44-.19,8.89,2.62,1.66,3.22.54,7.28-2.68,8.94-2.93,1.51-6.6.74-8.52-2.02s-1.64-7.49,2.3-9.54Z"/>
        <path class="cls-15" d="M306.69,430.03c3.75-1.97,7.65-.23,9.14,2.64,1.71,3.3.59,7.48-2.69,9.19-3.01,1.56-6.79.79-8.75-2.02s-1.72-7.69,2.31-9.8Z"/>
        <path class="cls-15" d="M379.3,428.95c3.75-1.97,7.65-.23,9.14,2.64,1.71,3.3.59,7.48-2.69,9.19-3.01,1.56-6.79.79-8.75-2.02s-1.72-7.69,2.31-9.8Z"/>
        <path class="cls-10" d="M0,185.13c3.73-1.92,7.62-.24,9.08,2.61,1.67,3.28.58,7.45-2.68,9.12-2.98,1.52-6.75.78-8.69-2.01s-1.7-7.66,2.29-9.71Z"/>
        <path class="cls-15" d="M57.44,227.37c3.73-1.95,7.63-.24,9.11,2.63,1.69,3.28.59,7.46-2.68,9.15-2.99,1.54-6.77.79-8.72-2.02s-1.71-7.67,2.3-9.77Z"/>
        <path class="cls-10" d="M72.71,184.13c3.65-1.9,7.44-.19,8.89,2.62,1.66,3.22.54,7.28-2.68,8.94-2.93,1.51-6.6.74-8.52-2.02s-1.64-7.49,2.3-9.54Z"/>
        <path class="cls-15" d="M342.45,320.56c3.75-1.97,7.65-.23,9.14,2.64,1.71,3.3.59,7.48-2.69,9.19-3.01,1.56-6.79.79-8.75-2.02s-1.72-7.69,2.31-9.8Z"/>
        <path class="cls-10" d="M269.96,320.7c3.65-1.9,7.44-.19,8.89,2.62,1.66,3.22.54,7.28-2.68,8.94-2.93,1.51-6.6.74-8.52-2.02s-1.64-7.49,2.3-9.54Z"/>
        <path class="cls-10" d="M348.98,225.24c3.73-1.92,7.62-.24,9.08,2.61,1.67,3.28.58,7.45-2.68,9.12-2.98,1.52-6.75.78-8.69-2.01s-1.7-7.66,2.29-9.71Z"/>
        <path class="cls-15" d="M277.41,444.08c3.77-2,7.68-.22,9.2,2.66,1.75,3.33.59,7.51-2.71,9.25-3.03,1.59-6.81.8-8.81-2.03s-1.74-7.72,2.32-9.88Z"/>
        <path class="cls-15" d="M285.02,422.45c3.75-1.97,7.65-.23,9.14,2.64,1.71,3.3.59,7.48-2.69,9.19-3.01,1.56-6.79.79-8.75-2.02s-1.72-7.69,2.31-9.8Z"/>
        <path class="cls-10" d="M276.46,299.02c3.65-1.9,7.44-.19,8.89,2.62,1.66,3.22.54,7.28-2.68,8.94-2.93,1.51-6.6.74-8.52-2.02s-1.64-7.49,2.3-9.54Z"/>
        <path class="cls-10" d="M291.63,328.28c3.65-1.9,7.44-.19,8.89,2.62,1.66,3.22.54,7.28-2.68,8.94-2.93,1.51-6.6.74-8.52-2.02s-1.64-7.49,2.3-9.54Z"/>
        <path class="cls-10" d="M43.36,199.22c3.73-1.92,7.62-.24,9.08,2.61,1.67,3.28.58,7.45-2.68,9.12-2.98,1.52-6.75.78-8.69-2.01-1.96-2.83-1.7-7.66,2.29-9.71Z"/>
        <path class="cls-10" d="M49.9,176.51c3.68-1.9,7.54-.24,8.98,2.6,1.64,3.23.58,7.38-2.66,9.02-2.94,1.49-6.69.77-8.6-2s-1.67-7.59,2.28-9.62Z"/>
        <path class="cls-15" d="M335.93,414.81c3.77-2,7.68-.22,9.2,2.66,1.75,3.33.59,7.51-2.71,9.25-3.03,1.59-6.81.8-8.81-2.03s-1.74-7.72,2.32-9.88Z"/>
        <path class="cls-10" d="M35.77,220.9c3.73-1.92,7.62-.24,9.08,2.61,1.67,3.28.58,7.45-2.68,9.12-2.98,1.52-6.75.78-8.69-2.01s-1.7-7.66,2.29-9.71Z"/>
        <path class="cls-10" d="M28.22,170.01c3.68-1.9,7.54-.24,8.98,2.6,1.64,3.23.58,7.38-2.66,9.02-2.94,1.49-6.69.77-8.6-2s-1.67-7.59,2.28-9.62Z"/>
        <path class="cls-10" d="M108.48,219.89c3.65-1.9,7.44-.19,8.89,2.62,1.66,3.22.54,7.28-2.68,8.94-2.93,1.51-6.6.74-8.52-2.02s-1.64-7.49,2.3-9.54Z"/>
        <path class="cls-6" d="M174.44,241.36c3.78-2.02,7.71-.21,9.24,2.67,1.77,3.35.59,7.53-2.72,9.29-3.05,1.62-6.83.8-8.85-2.04s-1.75-7.74,2.33-9.92Z"/>
        <path class="cls-10" d="M313.31,334.79c3.65-1.9,7.44-.19,8.89,2.62,1.66,3.22.54,7.28-2.68,8.94-2.93,1.51-6.6.74-8.52-2.02s-1.64-7.49,2.3-9.54Z"/>
        <path class="cls-15" d="M313.2,407.29c3.73-1.95,7.63-.24,9.11,2.63,1.69,3.28.59,7.46-2.68,9.15-2.99,1.54-6.77.79-8.72-2.02s-1.71-7.67,2.3-9.77Z"/>
        <path class="cls-6" d="M321.83,458.14c3.78-2.02,7.71-.21,9.24,2.67,1.77,3.35.59,7.53-2.72,9.29-3.05,1.62-6.83.8-8.85-2.04-2.06-2.9-1.75-7.74,2.33-9.92Z"/>
        <path class="cls-6" d="M385.77,334.58c3.78-2.02,7.71-.21,9.24,2.67,1.77,3.35.59,7.53-2.72,9.29-3.05,1.62-6.83.8-8.85-2.04s-1.75-7.74,2.33-9.92Z"/>
        <path class="cls-10" d="M6.55,162.42c3.68-1.9,7.54-.24,8.98,2.6,1.64,3.23.58,7.38-2.66,9.02-2.94,1.49-6.69.77-8.6-2s-1.67-7.59,2.28-9.62Z"/>
        <path class="cls-15" d="M291.53,400.79c3.73-1.95,7.63-.24,9.11,2.63,1.69,3.28.59,7.46-2.68,9.15-2.99,1.54-6.77.79-8.72-2.02s-1.71-7.67,2.3-9.77Z"/>
        <path class="cls-15" d="M334.88,269.64c3.73-1.95,7.63-.24,9.11,2.63,1.69,3.28.59,7.46-2.68,9.15-2.99,1.54-6.77.79-8.72-2.02-1.98-2.84-1.71-7.67,2.3-9.77Z"/>
        <path class="cls-15" d="M399.89,217.59c3.75-1.97,7.65-.23,9.14,2.64,1.71,3.3.59,7.48-2.69,9.19-3.01,1.56-6.79.79-8.75-2.02s-1.72-7.69,2.31-9.8Z"/>
        <path class="cls-6" d="M329.42,509.08c3.78-2.02,7.71-.21,9.24,2.67,1.77,3.35.59,7.53-2.72,9.29-3.05,1.62-6.83.8-8.85-2.04s-1.75-7.74,2.33-9.92Z"/>
        <path class="cls-15" d="M350.05,444.15c3.73-1.95,7.63-.24,9.11,2.63,1.69,3.28.59,7.46-2.68,9.15-2.99,1.54-6.77.79-8.72-2.02s-1.71-7.67,2.3-9.77Z"/>
        <path class="cls-15" d="M480.07,341.11c3.77-2,7.68-.22,9.2,2.66,1.75,3.33.59,7.51-2.71,9.25-3.03,1.59-6.81.8-8.81-2.03s-1.74-7.72,2.32-9.88Z"/>
        <path class="cls-15" d="M262.27,342.26c3.73-1.95,7.63-.24,9.11,2.63,1.69,3.28.59,7.46-2.68,9.15-2.99,1.54-6.77.79-8.72-2.02s-1.71-7.67,2.3-9.77Z"/>
        <path class="cls-10" d="M86.75,213.36c3.68-1.9,7.54-.24,8.98,2.6,1.64,3.23.58,7.38-2.66,9.02-2.94,1.49-6.69.77-8.6-2s-1.67-7.59,2.28-9.62Z"/>
        <path class="cls-10" d="M334.89,342.3c3.73-1.92,7.62-.24,9.08,2.61,1.67,3.28.58,7.45-2.68,9.12-2.98,1.52-6.75.78-8.69-2.01s-1.7-7.66,2.29-9.71Z"/>
        <path class="cls-10" d="M284.05,277.34c3.65-1.9,7.44-.19,8.89,2.62,1.66,3.22.54,7.28-2.68,8.94-2.93,1.51-6.6.74-8.52-2.02s-1.64-7.49,2.3-9.54Z"/>
        <path class="cls-15" d="M14.09,213.28c3.73-1.95,7.63-.24,9.11,2.63,1.69,3.28.59,7.46-2.68,9.15-2.99,1.54-6.77.79-8.72-2.02s-1.71-7.67,2.3-9.77Z"/>
        <path class="cls-6" d="M299.07,451.64c3.78-2.02,7.71-.21,9.24,2.67,1.77,3.35.59,7.53-2.72,9.29-3.05,1.62-6.83.8-8.85-2.04s-1.75-7.74,2.33-9.92Z"/>
        <path class="cls-10" d="M14.19,140.77c3.65-1.9,7.44-.19,8.89,2.62,1.66,3.22.54,7.28-2.68,8.94-2.93,1.51-6.6.74-8.52-2.02s-1.64-7.49,2.3-9.54Z"/>
        <path class="cls-10" d="M320.8,385.65c3.73-1.92,7.62-.24,9.08,2.61,1.67,3.28.58,7.45-2.68,9.12-2.98,1.52-6.75.78-8.69-2.01s-1.7-7.66,2.29-9.71Z"/>
        <path class="cls-10" d="M320.89,313.11c3.65-1.9,7.44-.19,8.89,2.62,1.66,3.22.54,7.28-2.68,8.94-2.93,1.51-6.6.74-8.52-2.02s-1.64-7.49,2.3-9.54Z"/>
        <path class="cls-10" d="M65.07,205.78c3.68-1.9,7.54-.24,8.98,2.6,1.64,3.23.58,7.38-2.66,9.02-2.94,1.49-6.69.77-8.6-2s-1.67-7.59,2.28-9.62Z"/>
        <path class="cls-10" d="M305.72,283.84c3.65-1.9,7.44-.19,8.89,2.62,1.66,3.22.54,7.28-2.68,8.94-2.93,1.51-6.6.74-8.52-2.02s-1.64-7.49,2.3-9.54Z"/>
        <path class="cls-10" d="M283.99,349.93c3.68-1.9,7.54-.24,8.98,2.6,1.64,3.23.58,7.38-2.66,9.02-2.94,1.49-6.69.77-8.6-2s-1.67-7.59,2.28-9.62Z"/>
        <path class="cls-10" d="M299.12,379.15c3.73-1.92,7.62-.24,9.08,2.61,1.67,3.28.58,7.45-2.68,9.12-2.98,1.52-6.75.78-8.69-2.01s-1.7-7.66,2.29-9.71Z"/>
        <path class="cls-10" d="M-8.57,134.27c3.65-1.9,7.44-.19,8.89,2.62,1.66,3.22.54,7.28-2.68,8.94-2.93,1.51-6.6.74-8.52-2.02s-1.64-7.49,2.3-9.54Z"/>
        <path class="cls-6" d="M371.69,450.55c3.78-2.02,7.71-.21,9.24,2.67,1.77,3.35.59,7.53-2.72,9.29-3.05,1.62-6.83.8-8.85-2.04-2.06-2.9-1.75-7.74,2.33-9.92Z"/>
        <path class="cls-10" d="M277.45,371.56c3.73-1.92,7.62-.24,9.08,2.61,1.67,3.28.58,7.45-2.68,9.12-2.98,1.52-6.75.78-8.69-2.01s-1.7-7.66,2.29-9.71Z"/>
        <path class="cls-10" d="M328.42,364.02c3.68-1.9,7.54-.24,8.98,2.6,1.64,3.23.58,7.38-2.66,9.02-2.94,1.49-6.69.77-8.6-2s-1.67-7.59,2.28-9.62Z"/>
        <path class="cls-10" d="M-.98,111.51c3.65-1.9,7.44-.19,8.89,2.62,1.66,3.22.54,7.28-2.68,8.94-2.93,1.51-6.6.74-8.52-2.02s-1.64-7.49,2.3-9.54Z"/>
        <path class="cls-15" d="M254.67,291.3c3.75-1.97,7.65-.23,9.14,2.64,1.71,3.3.59,7.48-2.69,9.19-3.01,1.56-6.79.79-8.75-2.02s-1.72-7.69,2.31-9.8Z"/>
        <path class="cls-10" d="M305.66,356.44c3.68-1.9,7.54-.24,8.98,2.6,1.64,3.23.58,7.38-2.66,9.02-2.94,1.49-6.69.77-8.6-2s-1.67-7.59,2.28-9.62Z"/>
        <path class="cls-10" d="M152.85,233.96c3.68-1.9,7.54-.24,8.98,2.6,1.64,3.23.58,7.38-2.66,9.02-2.94,1.49-6.69.77-8.6-2s-1.67-7.59,2.28-9.62Z"/>
        <path class="cls-10" d="M320.71,240.25c3.9-1.39,7.23.9,8.23,3.77,1.18,3.41-.47,7.08-3.82,8.25-3.06,1.07-6.43-.17-7.92-3.06s-.67-7.47,3.51-8.96Z"/>
        <path class="cls-10" d="M65.32,60.15c3.57-1.02,6.84.97,7.88,3.94,1.2,3.4-.48,7.1-3.83,8.29s-7.08-.46-8.29-3.84.37-7.29,4.24-8.4Z"/>
        <path class="cls-15" d="M182.36,219.43c3.57-1.05,6.85,1.01,7.92,3.97,1.24,3.41-.5,7.12-3.85,8.35s-7.1-.49-8.34-3.86.39-7.31,4.27-8.46Z"/>
        <path class="cls-15" d="M263.65,269.29c3.57-1.05,6.85,1.01,7.92,3.97,1.24,3.41-.5,7.12-3.85,8.35s-7.1-.49-8.34-3.86.39-7.31,4.27-8.46Z"/>
        <path class="cls-10" d="M313.5,261.75c3.57-1.02,6.84.97,7.88,3.94,1.2,3.4-.48,7.1-3.83,8.29s-7.08-.46-8.29-3.84.37-7.29,4.24-8.4Z"/>
        <path class="cls-10" d="M291.83,255.25c3.57-1.02,6.84.97,7.88,3.94,1.2,3.4-.48,7.1-3.83,8.29s-7.08-.46-8.29-3.84.37-7.29,4.24-8.4Z"/>
        <path class="cls-10" d="M270.15,247.66c3.57-1.02,6.84.97,7.88,3.94,1.2,3.4-.48,7.1-3.83,8.29s-7.08-.46-8.29-3.84.37-7.29,4.24-8.4Z"/>
        <path class="cls-10" d="M299.03,232.66c3.9-1.39,7.23.9,8.23,3.77,1.18,3.41-.47,7.08-3.82,8.25-3.06,1.07-6.43-.17-7.92-3.06s-.67-7.47,3.51-8.96Z"/>
        <path class="cls-10" d="M277.74,225.98c3.57-1.02,6.84.97,7.88,3.94,1.2,3.4-.48,7.1-3.83,8.29s-7.08-.46-8.29-3.84.37-7.29,4.24-8.4Z"/>
        <path class="cls-15" d="M205.12,225.94c3.57-1.05,6.85,1.01,7.92,3.97,1.24,3.41-.5,7.12-3.85,8.35s-7.1-.49-8.34-3.86.39-7.31,4.27-8.46Z"/>
        <path class="cls-10" d="M256.07,218.39c3.57-1.02,6.84.97,7.88,3.94,1.2,3.4-.48,7.1-3.83,8.29s-7.08-.46-8.29-3.84.37-7.29,4.24-8.4Z"/>
        <path class="cls-10" d="M233.31,211.89c3.57-1.02,6.84.97,7.88,3.94,1.2,3.4-.48,7.1-3.83,8.29s-7.08-.46-8.29-3.84.37-7.29,4.24-8.4Z"/>
        <path class="cls-15" d="M160.69,211.85c3.57-1.05,6.85,1.01,7.92,3.97,1.24,3.41-.5,7.12-3.85,8.35s-7.1-.49-8.34-3.86.39-7.31,4.27-8.46Z"/>
        <path class="cls-10" d="M305.54,210.99c3.9-1.39,7.23.9,8.23,3.77,1.18,3.41-.47,7.08-3.82,8.25-3.06,1.07-6.43-.17-7.92-3.06s-.67-7.47,3.51-8.96Z"/>
        <path class="cls-15" d="M139.01,205.34c3.57-1.05,6.85,1.01,7.92,3.97,1.24,3.41-.5,7.12-3.85,8.35s-7.1-.49-8.34-3.86.39-7.31,4.27-8.46Z"/>
        <path class="cls-10" d="M283.86,204.48c3.9-1.39,7.23.9,8.23,3.77,1.18,3.41-.47,7.08-3.82,8.25-3.06,1.07-6.43-.17-7.92-3.06s-.67-7.47,3.51-8.96Z"/>
        <path class="cls-10" d="M211.63,204.3c3.57-1.02,6.84.97,7.88,3.94,1.2,3.4-.48,7.1-3.83,8.29s-7.08-.46-8.29-3.84c-1.17-3.29.37-7.29,4.24-8.4Z"/>
        <path class="cls-15" d="M189.95,197.76c3.57-1.05,6.85,1.01,7.92,3.97,1.24,3.41-.5,7.12-3.85,8.35s-7.1-.49-8.34-3.86c-1.21-3.3.39-7.31,4.27-8.46Z"/>
        <path class="cls-15" d="M117.34,197.76c3.57-1.05,6.85,1.01,7.92,3.97,1.24,3.41-.5,7.12-3.85,8.35s-7.1-.49-8.34-3.86.39-7.31,4.27-8.46Z"/>
        <path class="cls-12" d="M335.22,196.78c3.51-1.01,6.73,1,7.77,3.92,1.19,3.35-.5,6.99-3.81,8.18s-6.98-.49-8.18-3.81.4-7.18,4.22-8.28Z"/>
        <path class="cls-10" d="M262.19,196.9c3.9-1.39,7.23.9,8.23,3.77,1.18,3.41-.47,7.08-3.82,8.25-3.06,1.07-6.43-.17-7.92-3.06s-.67-7.47,3.51-8.96Z"/>
        <path class="cls-10" d="M240.51,190.39c3.9-1.39,7.23.9,8.23,3.77,1.18,3.41-.47,7.08-3.82,8.25-3.06,1.07-6.43-.17-7.92-3.06s-.67-7.47,3.51-8.96Z"/>
        <path class="cls-10" d="M168.28,190.21c3.57-1.02,6.84.97,7.88,3.94,1.2,3.4-.48,7.1-3.83,8.29s-7.08-.46-8.29-3.84.37-7.29,4.24-8.4Z"/>
        <path class="cls-12" d="M313.55,189.2c3.51-1.01,6.73,1,7.77,3.92,1.19,3.35-.5,6.99-3.81,8.18s-6.98-.49-8.18-3.81.4-7.18,4.22-8.28Z"/>
        <path class="cls-10" d="M146.61,183.71c3.57-1.02,6.84.97,7.88,3.94,1.2,3.4-.48,7.1-3.83,8.29s-7.08-.46-8.29-3.84.37-7.29,4.24-8.4Z"/>
        <path class="cls-12" d="M291.87,182.69c3.51-1.01,6.73,1,7.77,3.92,1.19,3.35-.5,6.99-3.81,8.18s-6.98-.49-8.18-3.81.4-7.18,4.22-8.28Z"/>
        <path class="cls-10" d="M218.83,182.81c3.9-1.39,7.23.9,8.23,3.77,1.18,3.41-.47,7.08-3.82,8.25-3.06,1.07-6.43-.17-7.92-3.06-1.54-3-.67-7.47,3.51-8.96Z"/>
        <path class="cls-10" d="M197.54,176.12c3.57-1.02,6.84.97,7.88,3.94,1.2,3.4-.48,7.1-3.83,8.29s-7.08-.46-8.29-3.84.37-7.29,4.24-8.4Z"/>
        <path class="cls-15" d="M123.84,176.08c3.57-1.05,6.85,1.01,7.92,3.97,1.24,3.41-.5,7.12-3.85,8.35s-7.1-.49-8.34-3.86c-1.21-3.3.39-7.31,4.27-8.46Z"/>
        <path class="cls-12" d="M270.2,175.11c3.51-1.01,6.73,1,7.77,3.92,1.19,3.35-.5,6.99-3.81,8.18s-6.98-.49-8.18-3.81.4-7.18,4.22-8.28Z"/>
        <path class="cls-10" d="M174.78,168.53c3.57-1.02,6.84.97,7.88,3.94,1.2,3.4-.48,7.1-3.83,8.29s-7.08-.46-8.29-3.84.37-7.29,4.24-8.4Z"/>
        <path class="cls-15" d="M102.17,168.49c3.57-1.05,6.85,1.01,7.92,3.97,1.24,3.41-.5,7.12-3.85,8.35s-7.1-.49-8.34-3.86.39-7.31,4.27-8.46Z"/>
        <path class="cls-12" d="M320.77,167.7c3.81-1.39,7.09.94,8.1,3.75,1.2,3.35-.52,6.95-3.79,8.14-3.02,1.1-6.31-.22-7.8-3.05s-.62-7.33,3.5-8.83Z"/>
        <path class="cls-10" d="M247.01,167.63c3.9-1.39,7.23.9,8.23,3.77,1.18,3.41-.47,7.08-3.82,8.25-3.06,1.07-6.43-.17-7.92-3.06s-.67-7.47,3.51-8.96Z"/>
        <path class="cls-15" d="M80.49,161.99c3.57-1.05,6.85,1.01,7.92,3.97,1.24,3.41-.5,7.12-3.85,8.35s-7.1-.49-8.34-3.86.39-7.31,4.27-8.46Z"/>
        <path class="cls-10" d="M225.34,161.13c3.9-1.39,7.23.9,8.23,3.77,1.18,3.41-.47,7.08-3.82,8.25-3.06,1.07-6.43-.17-7.92-3.06s-.67-7.47,3.51-8.96Z"/>
        <path class="cls-10" d="M153.11,160.95c3.57-1.02,6.84.97,7.88,3.94,1.2,3.4-.48,7.1-3.83,8.29s-7.08-.46-8.29-3.84.37-7.29,4.24-8.4Z"/>
        <path class="cls-12" d="M298.38,159.93c3.51-1.01,6.73,1,7.77,3.92,1.19,3.35-.5,6.99-3.81,8.18s-6.98-.49-8.18-3.81.4-7.18,4.22-8.28Z"/>
        <path class="cls-10" d="M131.43,154.44c3.57-1.02,6.84.97,7.88,3.94,1.2,3.4-.48,7.1-3.83,8.29s-7.08-.46-8.29-3.84.37-7.29,4.24-8.4Z"/>
        <path class="cls-15" d="M58.82,154.4c3.57-1.05,6.85,1.01,7.92,3.97,1.24,3.41-.5,7.12-3.85,8.35s-7.1-.49-8.34-3.86.39-7.31,4.27-8.46Z"/>
        <path class="cls-12" d="M276.7,153.43c3.51-1.01,6.73,1,7.77,3.92,1.19,3.35-.5,6.99-3.81,8.18s-6.98-.49-8.18-3.81.4-7.18,4.22-8.28Z"/>
        <path class="cls-10" d="M203.66,153.54c3.9-1.39,7.23.9,8.23,3.77,1.18,3.41-.47,7.08-3.82,8.25-3.06,1.07-6.43-.17-7.92-3.06s-.67-7.47,3.51-8.96Z"/>
        <path class="cls-15" d="M37.14,147.9c3.57-1.05,6.85,1.01,7.92,3.97,1.24,3.41-.5,7.12-3.85,8.35s-7.1-.49-8.34-3.86c-1.21-3.3.39-7.31,4.27-8.46Z"/>
        <path class="cls-10" d="M181.99,147.04c3.9-1.39,7.23.9,8.23,3.77,1.18,3.41-.47,7.08-3.82,8.25-3.06,1.07-6.43-.17-7.92-3.06s-.67-7.47,3.51-8.96Z"/>
        <path class="cls-10" d="M109.76,146.86c3.57-1.02,6.84.97,7.88,3.94,1.2,3.4-.48,7.1-3.83,8.29s-7.08-.46-8.29-3.84.37-7.29,4.24-8.4Z"/>
        <path class="cls-12" d="M327.27,146.02c3.81-1.39,7.09.94,8.1,3.75,1.2,3.35-.52,6.95-3.79,8.14-3.02,1.1-6.31-.22-7.8-3.05s-.62-7.33,3.5-8.83Z"/>
        <path class="cls-12" d="M255.03,145.84c3.51-1.01,6.73,1,7.77,3.92,1.19,3.35-.5,6.99-3.81,8.18s-6.98-.49-8.18-3.81.4-7.18,4.22-8.28Z"/>
        <path class="cls-10" d="M88.08,140.35c3.57-1.02,6.84.97,7.88,3.94,1.2,3.4-.48,7.1-3.83,8.29s-7.08-.46-8.29-3.84.37-7.29,4.24-8.4Z"/>
        <path class="cls-10" d="M232.92,139.45c3.9-1.39,7.23.9,8.23,3.77,1.18,3.41-.47,7.08-3.82,8.25-3.06,1.07-6.43-.17-7.92-3.06s-.67-7.47,3.51-8.96Z"/>
        <path class="cls-10" d="M160.31,139.45c3.9-1.39,7.23.9,8.23,3.77,1.18,3.41-.47,7.08-3.82,8.25-3.06,1.07-6.43-.17-7.92-3.06s-.67-7.47,3.51-8.96Z"/>
        <path class="cls-12" d="M305.6,138.44c3.81-1.39,7.09.94,8.1,3.75,1.2,3.35-.52,6.95-3.79,8.14-3.02,1.1-6.31-.22-7.8-3.05s-.62-7.33,3.5-8.83Z"/>
        <path class="cls-10" d="M138.64,132.95c3.9-1.39,7.23.9,8.23,3.77,1.18,3.41-.47,7.08-3.82,8.25-3.06,1.07-6.43-.17-7.92-3.06s-.67-7.47,3.51-8.96Z"/>
        <path class="cls-10" d="M66.41,132.77c3.57-1.02,6.84.97,7.88,3.94,1.2,3.4-.48,7.1-3.83,8.29s-7.08-.46-8.29-3.84.37-7.29,4.24-8.4Z"/>
        <path class="cls-12" d="M283.92,131.93c3.81-1.39,7.09.94,8.1,3.75,1.2,3.35-.52,6.95-3.79,8.14-3.02,1.1-6.31-.22-7.8-3.05s-.62-7.33,3.5-8.83Z"/>
        <path class="cls-12" d="M211.68,131.75c3.51-1.01,6.73,1,7.77,3.92,1.19,3.35-.5,6.99-3.81,8.18s-6.98-.49-8.18-3.81c-1.17-3.24.4-7.18,4.22-8.28Z"/>
        <path class="cls-10" d="M43.65,126.26c3.57-1.02,6.84.97,7.88,3.94,1.2,3.4-.48,7.1-3.83,8.29s-7.08-.46-8.29-3.84.37-7.29,4.24-8.4Z"/>
        <path class="cls-12" d="M190,125.25c3.51-1.01,6.73,1,7.77,3.92,1.19,3.35-.5,6.99-3.81,8.18s-6.98-.49-8.18-3.81.4-7.18,4.22-8.28Z"/>
        <path class="cls-10" d="M115.88,125.36c3.9-1.39,7.23.9,8.23,3.77,1.18,3.41-.47,7.08-3.82,8.25-3.06,1.07-6.43-.17-7.92-3.06s-.67-7.47,3.51-8.96Z"/>
        <path class="cls-12" d="M334.86,124.34c3.81-1.39,7.09.94,8.1,3.75,1.2,3.35-.52,6.95-3.79,8.14-3.02,1.1-6.31-.22-7.8-3.05s-.62-7.33,3.5-8.83Z"/>
        <path class="cls-12" d="M262.61,124.16c3.51-1.01,6.73,1,7.77,3.92,1.19,3.35-.5,6.99-3.81,8.18s-6.98-.49-8.18-3.81.4-7.18,4.22-8.28Z"/>
        <path class="cls-10" d="M94.2,118.86c3.9-1.39,7.23.9,8.23,3.77,1.18,3.41-.47,7.08-3.82,8.25-3.06,1.07-6.43-.17-7.92-3.06s-.67-7.47,3.51-8.96Z"/>
        <path class="cls-15" d="M21.97,118.63c3.57-1.05,6.85,1.01,7.92,3.97,1.24,3.41-.5,7.12-3.85,8.35s-7.1-.49-8.34-3.86.39-7.31,4.27-8.46Z"/>
        <path class="cls-12" d="M239.85,117.66c3.51-1.01,6.73,1,7.77,3.92,1.19,3.35-.5,6.99-3.81,8.18s-6.98-.49-8.18-3.81c-1.17-3.24.4-7.18,4.22-8.28Z"/>
        <path class="cls-10" d="M166.81,117.77c3.9-1.39,7.23.9,8.23,3.77,1.18,3.41-.47,7.08-3.82,8.25-3.06,1.07-6.43-.17-7.92-3.06s-.67-7.47,3.51-8.96Z"/>
        <path class="cls-12" d="M313.18,116.76c3.81-1.39,7.09.94,8.1,3.75,1.2,3.35-.52,6.95-3.79,8.14-3.02,1.1-6.31-.22-7.8-3.05s-.62-7.33,3.5-8.83Z"/>
        <path class="cls-10" d="M72.91,111.09c3.57-1.02,6.84.97,7.88,3.94,1.2,3.4-.48,7.1-3.83,8.29s-7.08-.46-8.29-3.84.37-7.29,4.24-8.4Z"/>
        <path class="cls-12" d="M218.18,110.07c3.51-1.01,6.73,1,7.77,3.92,1.19,3.35-.5,6.99-3.81,8.18s-6.98-.49-8.18-3.81.4-7.18,4.22-8.28Z"/>
        <path class="cls-10" d="M145.14,110.18c3.9-1.39,7.23.9,8.23,3.77,1.18,3.41-.47,7.08-3.82,8.25-3.06,1.07-6.43-.17-7.92-3.06s-.67-7.47,3.51-8.96Z"/>
        <path class="cls-12" d="M290.42,109.17c3.81-1.39,7.09.94,8.1,3.75,1.2,3.35-.52,6.95-3.79,8.14-3.02,1.1-6.31-.22-7.8-3.05s-.62-7.33,3.5-8.83Z"/>
        <path class="cls-10" d="M123.46,103.68c3.9-1.39,7.23.9,8.23,3.77,1.18,3.41-.47,7.08-3.82,8.25-3.06,1.07-6.43-.17-7.92-3.06s-.67-7.47,3.51-8.96Z"/>
        <path class="cls-10" d="M51.23,103.5c3.57-1.02,6.84.97,7.88,3.94,1.2,3.4-.48,7.1-3.83,8.29s-7.08-.46-8.29-3.84.37-7.29,4.24-8.4Z"/>
        <path class="cls-12" d="M268.75,102.67c3.81-1.39,7.09.94,8.1,3.75,1.2,3.35-.52,6.95-3.79,8.14-3.02,1.1-6.31-.22-7.8-3.05s-.62-7.33,3.5-8.83Z"/>
        <path class="cls-12" d="M196.5,102.48c3.51-1.01,6.73,1,7.77,3.92,1.19,3.35-.5,6.99-3.81,8.18s-6.98-.49-8.18-3.81.4-7.18,4.22-8.28Z"/>
        <path class="cls-10" d="M29.56,97c3.57-1.02,6.84.97,7.88,3.94,1.2,3.4-.48,7.1-3.83,8.29s-7.08-.46-8.29-3.84.37-7.29,4.24-8.4Z"/>
        <path class="cls-12" d="M174.83,95.98c3.51-1.01,6.73,1,7.77,3.92,1.19,3.35-.5,6.99-3.81,8.18s-6.98-.49-8.18-3.81.4-7.18,4.22-8.28Z"/>
        <path class="cls-10" d="M101.79,96.09c3.9-1.39,7.23.9,8.23,3.77,1.18,3.41-.47,7.08-3.82,8.25-3.06,1.07-6.43-.17-7.92-3.06s-.67-7.47,3.51-8.96Z"/>
        <path class="cls-12" d="M319.68,95.08c3.81-1.39,7.09.94,8.1,3.75,1.2,3.35-.52,6.95-3.79,8.14-3.02,1.1-6.31-.22-7.8-3.05s-.62-7.33,3.5-8.83Z"/>
        <path class="cls-12" d="M247.07,95.08c3.81-1.39,7.09.94,8.1,3.75,1.2,3.35-.52,6.95-3.79,8.14-3.02,1.1-6.31-.22-7.8-3.05s-.62-7.33,3.5-8.83Z"/>
        <path class="cls-10" d="M80.11,89.59c3.9-1.39,7.23.9,8.23,3.77,1.18,3.41-.47,7.08-3.82,8.25-3.06,1.07-6.43-.17-7.92-3.06s-.67-7.47,3.51-8.96Z"/>
        <path class="cls-15" d="M7.88,89.37c3.57-1.05,6.85,1.01,7.92,3.97,1.24,3.41-.5,7.12-3.85,8.35s-7.1-.49-8.34-3.86.39-7.31,4.27-8.46Z"/>
        <path class="cls-12" d="M225.4,88.58c3.81-1.39,7.09.94,8.1,3.75,1.2,3.35-.52,6.95-3.79,8.14-3.02,1.1-6.31-.22-7.8-3.05s-.62-7.33,3.5-8.83Z"/>
        <path class="cls-12" d="M153.15,88.39c3.51-1.01,6.73,1,7.77,3.92,1.19,3.35-.5,6.99-3.81,8.18s-6.98-.49-8.18-3.81.4-7.18,4.22-8.28Z"/>
        <path class="cls-12" d="M298.01,87.49c3.81-1.39,7.09.94,8.1,3.75,1.2,3.35-.52,6.95-3.79,8.14-3.02,1.1-6.31-.22-7.8-3.05s-.62-7.33,3.5-8.83Z"/>
        <path class="cls-10" d="M131.05,82c3.9-1.39,7.23.9,8.23,3.77,1.18,3.41-.47,7.08-3.82,8.25-3.06,1.07-6.43-.17-7.92-3.06s-.67-7.47,3.51-8.96Z"/>
        <path class="cls-10" d="M57.74,81.82c3.57-1.02,6.84.97,7.88,3.94,1.2,3.4-.48,7.1-3.83,8.29s-7.08-.46-8.29-3.84.37-7.29,4.24-8.4Z"/>
        <path class="cls-12" d="M276.33,80.99c3.81-1.39,7.09.94,8.1,3.75,1.2,3.35-.52,6.95-3.79,8.14-3.02,1.1-6.31-.22-7.8-3.05-1.55-2.96-.62-7.33,3.5-8.83Z"/>
        <path class="cls-12" d="M203.72,80.99c3.81-1.39,7.09.94,8.1,3.75,1.2,3.35-.52,6.95-3.79,8.14-3.02,1.1-6.31-.22-7.8-3.05s-.62-7.33,3.5-8.83Z"/>
        <path class="cls-10" d="M36.06,75.32c3.57-1.02,6.84.97,7.88,3.94,1.2,3.4-.48,7.1-3.83,8.29s-7.08-.46-8.29-3.84.37-7.29,4.24-8.4Z"/>
        <path class="cls-12" d="M181.33,74.3c3.51-1.01,6.73,1,7.77,3.92,1.19,3.35-.5,6.99-3.81,8.18s-6.98-.49-8.18-3.81.4-7.18,4.22-8.28Z"/>
        <path class="cls-10" d="M108.29,74.42c3.9-1.39,7.23.9,8.23,3.77,1.18,3.41-.47,7.08-3.82,8.25-3.06,1.07-6.43-.17-7.92-3.06s-.67-7.47,3.51-8.96Z"/>
        <path class="cls-12" d="M327.27,73.4c3.81-1.39,7.09.94,8.1,3.75,1.2,3.35-.52,6.95-3.79,8.14-3.02,1.1-6.31-.22-7.8-3.05s-.62-7.33,3.5-8.83Z"/>
        <path class="cls-12" d="M254.66,73.4c3.81-1.39,7.09.94,8.1,3.75,1.2,3.35-.52,6.95-3.79,8.14-3.02,1.1-6.31-.22-7.8-3.05-1.55-2.96-.62-7.33,3.5-8.83Z"/>
        <path class="cls-10" d="M86.62,67.91c3.9-1.39,7.23.9,8.23,3.77,1.18,3.41-.47,7.08-3.82,8.25-3.06,1.07-6.43-.17-7.92-3.06s-.67-7.47,3.51-8.96Z"/>
        <path class="cls-10" d="M14.39,67.73c3.57-1.02,6.84.97,7.88,3.94,1.2,3.4-.48,7.1-3.83,8.29s-7.08-.46-8.29-3.84.37-7.29,4.24-8.4Z"/>
        <path class="cls-12" d="M231.9,66.9c3.81-1.39,7.09.94,8.1,3.75,1.2,3.35-.52,6.95-3.79,8.14-3.02,1.1-6.31-.22-7.8-3.05s-.62-7.33,3.5-8.83Z"/>
        <path class="cls-12" d="M159.65,66.72c3.51-1.01,6.73,1,7.77,3.92,1.19,3.35-.5,6.99-3.81,8.18s-6.98-.49-8.18-3.81.4-7.18,4.22-8.28Z"/>
        <path class="cls-12" d="M304.51,65.81c3.81-1.39,7.09.94,8.1,3.75,1.2,3.35-.52,6.95-3.79,8.14-3.02,1.1-6.31-.22-7.8-3.05s-.62-7.33,3.5-8.83Z"/>
        <path class="cls-15" d="M-7.29,61.19c3.57-1.05,6.85,1.01,7.92,3.97,1.24,3.41-.5,7.12-3.85,8.35s-7.1-.49-8.34-3.86c-1.21-3.3.39-7.31,4.27-8.46Z"/>
        <path class="cls-10" d="M137.55,60.33c3.9-1.39,7.23.9,8.23,3.77,1.18,3.41-.47,7.08-3.82,8.25-3.06,1.07-6.43-.17-7.92-3.06s-.67-7.47,3.51-8.96Z"/>
        <path class="cls-12" d="M328.72,218.46c3.51-1.01,6.73,1,7.77,3.92,1.19,3.35-.5,6.99-3.81,8.18s-6.98-.49-8.18-3.81.4-7.18,4.22-8.28Z"/>
        <path class="cls-15" d="M328.67,290.97c3.57-1.05,6.85,1.01,7.92,3.97,1.24,3.41-.5,7.12-3.85,8.35s-7.1-.49-8.34-3.86.39-7.31,4.27-8.46Z"/>
        <path class="cls-12" d="M210.23,59.31c3.81-1.39,7.09.94,8.1,3.75,1.2,3.35-.52,6.95-3.79,8.14-3.02,1.1-6.31-.22-7.8-3.05s-.62-7.33,3.5-8.83Z"/>
        <path class="cls-12" d="M188.55,52.81c3.81-1.39,7.09.94,8.1,3.75,1.2,3.35-.52,6.95-3.79,8.14-3.02,1.1-6.31-.22-7.8-3.05s-.62-7.33,3.5-8.83Z"/>
        <path class="cls-10" d="M115.88,52.74c3.9-1.39,7.23.9,8.23,3.77,1.18,3.41-.47,7.08-3.82,8.25-3.06,1.07-6.43-.17-7.92-3.06s-.67-7.47,3.51-8.96Z"/>
        <path class="cls-10" d="M43.65,52.56c3.57-1.02,6.84.97,7.88,3.94,1.2,3.4-.48,7.1-3.83,8.29s-7.08-.46-8.29-3.84.37-7.29,4.24-8.4Z"/>
        <path class="cls-14" d="M333.82,51.8c3.75-1.37,6.98.94,7.98,3.71,1.18,3.3-.53,6.84-3.76,8.01-2.98,1.08-6.22-.23-7.68-3.03s-.59-7.22,3.47-8.7Z"/>
        <path class="cls-12" d="M261.16,51.72c3.81-1.39,7.09.94,8.1,3.75,1.2,3.35-.52,6.95-3.79,8.14-3.02,1.1-6.31-.22-7.8-3.05s-.62-7.33,3.5-8.83Z"/>
        <path class="cls-10" d="M21.97,46.06c3.57-1.02,6.84.97,7.88,3.94,1.2,3.4-.48,7.1-3.83,8.29s-7.08-.46-8.29-3.84.37-7.29,4.24-8.4Z"/>
        <path class="cls-12" d="M167.24,45.04c3.51-1.01,6.73,1,7.77,3.92,1.19,3.35-.5,6.99-3.81,8.18s-6.98-.49-8.18-3.81c-1.17-3.24.4-7.18,4.22-8.28Z"/>
        <path class="cls-10" d="M94.2,45.15c3.9-1.39,7.23.9,8.23,3.77,1.18,3.41-.47,7.08-3.82,8.25-3.06,1.07-6.43-.17-7.92-3.06s-.67-7.47,3.51-8.96Z"/>
        <path class="cls-12" d="M312.1,44.14c3.81-1.39,7.09.94,8.1,3.75,1.2,3.35-.52,6.95-3.79,8.14-3.02,1.1-6.31-.22-7.8-3.05s-.62-7.33,3.5-8.83Z"/>
        <path class="cls-12" d="M239.49,44.14c3.81-1.39,7.09.94,8.1,3.75,1.2,3.35-.52,6.95-3.79,8.14-3.02,1.1-6.31-.22-7.8-3.05s-.62-7.33,3.5-8.83Z"/>
        <path class="cls-10" d="M72.91,38.47c3.57-1.02,6.84.97,7.88,3.94,1.2,3.4-.48,7.1-3.83,8.29s-7.08-.46-8.29-3.84c-1.17-3.29.37-7.29,4.24-8.4Z"/>
        <path class="cls-10" d="M.3,38.47c3.57-1.02,6.84.97,7.88,3.94,1.2,3.4-.48,7.1-3.83,8.29s-7.08-.46-8.29-3.84c-1.17-3.29.37-7.29,4.24-8.4Z"/>
        <path class="cls-12" d="M217.81,37.63c3.81-1.39,7.09.94,8.1,3.75,1.2,3.35-.52,6.95-3.79,8.14-3.02,1.1-6.31-.22-7.8-3.05s-.62-7.33,3.5-8.83Z"/>
        <path class="cls-12" d="M145.57,37.45c3.51-1.01,6.73,1,7.77,3.92,1.19,3.35-.5,6.99-3.81,8.18s-6.98-.49-8.18-3.81.4-7.18,4.22-8.28Z"/>
        <path class="cls-7" d="M290.45,36.59c3.78-1.38,7.03.94,8.04,3.73,1.19,3.32-.52,6.89-3.77,8.07-3,1.09-6.26-.22-7.74-3.04s-.61-7.27,3.48-8.76Z"/>
        <path class="cls-12" d="M123.89,30.95c3.51-1.01,6.73,1,7.77,3.92,1.19,3.35-.5,6.99-3.81,8.18s-6.98-.49-8.18-3.81.4-7.18,4.22-8.28Z"/>
        <path class="cls-10" d="M50.15,30.88c3.57-1.02,6.84.97,7.88,3.94,1.2,3.4-.48,7.1-3.83,8.29s-7.08-.46-8.29-3.84.37-7.29,4.24-8.4Z"/>
        <path class="cls-7" d="M268.77,30.09c3.78-1.38,7.03.94,8.04,3.73,1.19,3.32-.52,6.89-3.77,8.07-3,1.09-6.26-.22-7.74-3.04s-.61-7.27,3.48-8.76Z"/>
        <path class="cls-12" d="M196.14,30.05c3.81-1.39,7.09.94,8.1,3.75,1.2,3.35-.52,6.95-3.79,8.14-3.02,1.1-6.31-.22-7.8-3.05s-.62-7.33,3.5-8.83Z"/>
        <path class="cls-10" d="M28.48,24.38c3.57-1.02,6.84.97,7.88,3.94,1.2,3.4-.48,7.1-3.83,8.29s-7.08-.46-8.29-3.84.37-7.29,4.24-8.4Z"/>
        <path class="cls-12" d="M173.38,23.54c3.81-1.39,7.09.94,8.1,3.75,1.2,3.35-.52,6.95-3.79,8.14-3.02,1.1-6.31-.22-7.8-3.05s-.62-7.33,3.5-8.83Z"/>
        <path class="cls-10" d="M100.7,23.47c3.9-1.39,7.23.9,8.23,3.77,1.18,3.41-.47,7.08-3.82,8.25-3.06,1.07-6.43-.17-7.92-3.06s-.67-7.47,3.51-8.96Z"/>
        <path class="cls-12" d="M319.68,22.46c3.81-1.39,7.09.94,8.1,3.75,1.2,3.35-.52,6.95-3.79,8.14-3.02,1.1-6.31-.22-7.8-3.05s-.62-7.33,3.5-8.83Z"/>
        <path class="cls-12" d="M247.07,22.46c3.81-1.39,7.09.94,8.1,3.75,1.2,3.35-.52,6.95-3.79,8.14-3.02,1.1-6.31-.22-7.8-3.05s-.62-7.33,3.5-8.83Z"/>
        <path class="cls-10" d="M79.03,16.97c3.9-1.39,7.23.9,8.23,3.77,1.18,3.41-.47,7.08-3.82,8.25-3.06,1.07-6.43-.17-7.92-3.06s-.67-7.47,3.51-8.96Z"/>
        <path class="cls-10" d="M6.8,16.79c3.57-1.02,6.84.97,7.88,3.94,1.2,3.4-.48,7.1-3.83,8.29s-7.08-.46-8.29-3.84.37-7.29,4.24-8.4Z"/>
        <path class="cls-12" d="M224.31,15.96c3.81-1.39,7.09.94,8.1,3.75,1.2,3.35-.52,6.95-3.79,8.14-3.02,1.1-6.31-.22-7.8-3.05s-.62-7.33,3.5-8.83Z"/>
        <path class="cls-12" d="M151.7,15.96c3.81-1.39,7.09.94,8.1,3.75,1.2,3.35-.52,6.95-3.79,8.14-3.02,1.1-6.31-.22-7.8-3.05s-.62-7.33,3.5-8.83Z"/>
        <path class="cls-7" d="M296.95,14.91c3.78-1.38,7.03.94,8.04,3.73,1.19,3.32-.52,6.89-3.77,8.07-3,1.09-6.26-.22-7.74-3.04s-.61-7.27,3.48-8.76Z"/>
        <path class="cls-12" d="M130.39,9.27c3.51-1.01,6.73,1,7.77,3.92,1.19,3.35-.5,6.99-3.81,8.18s-6.98-.49-8.18-3.81.4-7.18,4.22-8.28Z"/>
        <path class="cls-10" d="M57.35,9.38c3.9-1.39,7.23.9,8.23,3.77,1.18,3.41-.47,7.08-3.82,8.25-3.06,1.07-6.43-.17-7.92-3.06s-.67-7.47,3.51-8.96Z"/>
        <path class="cls-7" d="M275.27,8.41c3.78-1.38,7.03.94,8.04,3.73,1.19,3.32-.52,6.89-3.77,8.07-3,1.09-6.26-.22-7.74-3.04s-.61-7.27,3.48-8.76Z"/>
        <path class="cls-12" d="M202.64,8.37c3.81-1.39,7.09.94,8.1,3.75,1.2,3.35-.52,6.95-3.79,8.14-3.02,1.1-6.31-.22-7.8-3.05s-.62-7.33,3.5-8.83Z"/>
        <path class="cls-10" d="M35.68,2.88c3.9-1.39,7.23.9,8.23,3.77,1.18,3.41-.47,7.08-3.82,8.25-3.06,1.07-6.43-.17-7.92-3.06s-.67-7.47,3.51-8.96Z"/>
        <path class="cls-12" d="M180.96,1.87c3.81-1.39,7.09.94,8.1,3.75,1.2,3.35-.52,6.95-3.79,8.14-3.02,1.1-6.31-.22-7.8-3.05s-.62-7.33,3.5-8.83Z"/>
        <path class="cls-10" d="M108.29,1.8c3.9-1.39,7.23.9,8.23,3.77,1.18,3.41-.47,7.08-3.82,8.25-3.06,1.07-6.43-.17-7.92-3.06s-.67-7.47,3.51-8.96Z"/>
        <path class="cls-12" d="M326.19.78c3.81-1.39,7.09.94,8.1,3.75,1.2,3.35-.52,6.95-3.79,8.14-3.02,1.1-6.31-.22-7.8-3.05s-.62-7.33,3.5-8.83Z"/>
        <path class="cls-7" d="M253.6.82c3.78-1.38,7.03.94,8.04,3.73,1.19,3.32-.52,6.89-3.77,8.07-3,1.09-6.26-.22-7.74-3.04s-.61-7.27,3.48-8.76Z"/>
        <path class="cls-10" d="M86.62-4.71c3.9-1.39,7.23.9,8.23,3.77,1.18,3.41-.47,7.08-3.82,8.25-3.06,1.07-6.43-.17-7.92-3.06s-.67-7.47,3.51-8.96Z"/>
        <path class="cls-10" d="M14.39-4.89c3.57-1.02,6.84.97,7.88,3.94,1.2,3.4-.48,7.1-3.83,8.29s-7.08-.46-8.29-3.84c-1.17-3.29.37-7.29,4.24-8.4Z"/>
        <path class="cls-12" d="M231.9-5.72c3.81-1.39,7.09.94,8.1,3.75,1.2,3.35-.52,6.95-3.79,8.14-3.02,1.1-6.31-.22-7.8-3.05-1.55-2.96-.62-7.33,3.5-8.83Z"/>
        <path class="cls-12" d="M159.29-5.72c3.81-1.39,7.09.94,8.1,3.75,1.2,3.35-.52,6.95-3.79,8.14-3.02,1.1-6.31-.22-7.8-3.05s-.62-7.33,3.5-8.83Z"/>
        <path class="cls-12" d="M304.51-6.81c3.81-1.39,7.09.94,8.1,3.75,1.2,3.35-.52,6.95-3.79,8.14-3.02,1.1-6.31-.22-7.8-3.05s-.62-7.33,3.5-8.83Z"/>
        <path class="cls-12" d="M65.37-12.41c3.51-1.01,6.73,1,7.77,3.92,1.19,3.35-.5,6.99-3.81,8.18s-6.98-.49-8.18-3.81.4-7.18,4.22-8.28Z"/>
        <path class="cls-12" d="M282.84,59.31c3.81-1.39,7.09.94,8.1,3.75,1.2,3.35-.52,6.95-3.79,8.14-3.02,1.1-6.31-.22-7.8-3.05s-.62-7.33,3.5-8.83Z"/>
        <path class="cls-8" d="M503.94,398.02c-.95,1.27-1.47,3.8-1.71,5.39-.29,2.1-1.16,2.07-1.62-.02,1.17-2.03,1.26-4.19,1.17-6.54l2.16,1.18Z"/>
        <path class="cls-15" d="M115.75,397.57l.59-7.2c.96,2.58,1.32,4.9-.59,7.2Z"/>
        <path class="cls-4" d="M39.13,489.11c-.73,1.31-1.64,2.89-1.9,4.33l-1.71.19c.73-1.23,1.54-3.01,1.78-4.38l1.83-.14Z"/>
        <path class="cls-16" d="M439.04,521.68c-.71-4.92-2.73-7.58-5.85-10.64,5.75-.03,9.65-3.56,10.9-7.7,1.54-5.09-.2-9.64-4.44-12.96,4.78-.54,7.96-1.69,10.98-4.97,1.27,5.92,4.24,8.94,9.21,11-6.62-.21-11.63,1.67-13.7,6.97-1.93,4.93-.32,10.73,4.84,13.56-4.85.32-8.12.85-11.94,4.73Z"/>
        <path class="cls-2" d="M444.55,429.56c.08-5.19-1.11-8.69-5.14-11.9,5.51-1.01,8.57-2.99,11.09-6.99.51,5.7,2.3,9.67,7.04,12.07-6,.2-10.49,1.86-12.99,6.82Z"/>
        <path class="cls-2" d="M518.05,501.32c-.7-5.88-2.66-9.02-6.99-12.05,5.42.1,8.98-.89,12.06-4.71.7,4.31,2.07,6.73,5.26,10.27-4.55.66-6.85,2.37-10.33,6.49Z"/>
        <path class="cls-2" d="M500.61,403.39l1.62.02c-.71,4.75,2,8.85,6.32,11.69-5.2.32-8.73,1.41-12,4.87-.26-4.83-1.99-7.7-5.86-10.75,4.4-.32,7.83-2.21,9.92-5.83Z"/>
        <path class="cls-2" d="M467.4,508.52c-.45-5.3-2.58-9.66-8.31-11.69,5.89-.35,9.71-.9,13.19-5.06.89,4.63,2.04,7.29,5,10.13-4.24,1.51-6.49,2.3-9.88,6.61Z"/>
        <path class="cls-9" d="M511.69,520.72c-1.01-4.07-2.35-5.92-5.15-9.32,4.83-.54,7.38-2.75,10.25-6.68.91,5.26,1.96,8.4,5.69,11.18-4.45.55-7.1,1.36-10.79,4.82Z"/>
        <path class="cls-5" d="M518.13,426.34c-1.22-4.78-2.96-7.4-7.11-9.94,5.64-.36,9.48-1.33,12.13-5.54.08,4.73,1.29,7.85,4.73,10.69-4.02.59-6.51,1.54-9.75,4.79Z"/>
        <path class="cls-18" d="M489.82,514.11c-.83-4.44-2.13-7.12-5.58-9.67,4.25-1,6.94-2.08,9.92-5.23.92,4.94,2.11,7.63,5.48,10.08-3.89.85-6.26,1.86-9.83,4.83Z"/>
        <path class="cls-2" d="M496.5,493.42c-.64-4.06-1.35-6.68-3.97-9.75,4.08-1.16,6.45-2.04,8.91-4.56,1.22,4.09,3.07,6.09,6.16,8.77-4.96.77-7.88,1.64-11.1,5.54Z"/>
        <path class="cls-9" d="M467.18,433.18c-1.65-4.48-3.13-7.06-6.84-8.93,5.12-.22,8.64-1.33,11.88-4.81.33,4.17,1.5,6.84,4.43,9.57-3.33.36-5.87,1.13-9.47,4.17Z"/>
        <path class="cls-2" d="M474.77,484.86c-.58-3.76-1.54-5.96-3.65-8.65l8.29-3.76c.74,3.08,1.74,5.41,4.18,7.72-3.6,1.3-5.46,1.99-8.82,4.69Z"/>
        <path class="cls-18" d="M489.04,440.34c-.56-3.71-1.79-6.04-4.07-8.41,4.31-.75,6.5-2.11,8.92-4.82.77,3.63,1.69,5.99,3.83,8.76-3.73,1.32-6.18,2.18-8.68,4.47Z"/>
        <path class="cls-18" d="M511.13,447.18c-1.07-3.04-1.82-5.45-4.25-7.77,3.94-1.18,6.29-2.39,8.61-4.93.91,3.54,1.77,5.39,4.07,8.33-3.13.94-4.67,1.43-8.44,4.38Z"/>
        <path class="cls-18" d="M453.19,477.21c-1.02-3.19-1.9-5.1-3.74-7.57l8.24-3.89c1.04,2.7,2.04,4.65,4.08,6.79-3.51,1.12-5.44,2.06-8.58,4.66Z"/>
        <path class="cls-5" d="M504.59,468.69c-.9-2.94-1.74-5.22-3.89-7.49,3.22-.57,4.96-1.76,7.89-4.2.92,3.36,1.85,5.63,4.16,7.87-3.21.73-4.56,1.28-8.15,3.82Z"/>
        <path class="cls-13" d="M460.96,454.12c-.62-2.67-1.62-4.94-3.95-7.12,3.3-1.62,5.37-2.55,7.54-4.65.59,3.59,1.88,5.78,3.64,8.4-2.72.4-4.45,1.01-7.23,3.36Z"/>
        <path class="cls-13" d="M489.71,458.31c-2.64.54-4.08,1.29-6.8,2.88-.68-3.12-1.78-5.38-3.96-7.54l6.8-3.43c1,3.39,1.72,5.26,3.96,8.08Z"/>
        <path class="cls-16" d="M256.49,505.02c-2.96.71-5.12,1.7-7.16,5.03-.59-5.88-2.42-9.63-6.84-12.12,6.32.69,10.12-2.4,13.31-6.74-.46,4.99.95,9.83,5.63,12.65l-4.94,1.18Z"/>
        <path class="cls-2" d="M104.31,509.79c-.91-4.53-2.45-8.56-7.04-10.75,5.52-.11,9.4-1.19,12.05-6.11.65,5.89,2.5,9.26,6.94,12.15-4.9.29-8.39,1.06-11.95,4.71Z"/>
        <path class="cls-18" d="M126.07,517.47c-1.13-4.52-2.29-8.46-7.38-11.06,5.77-.45,9.31-1.27,12.37-5.91.58,5.27,1.75,8.59,5.66,10.98-4.39.83-7,1.4-10.65,5.99Z"/>
        <path class="cls-2" d="M198.52,517.4c-.3-4.83-1.43-7.83-4.97-10.92,4.79-.94,7.52-2.15,10.11-5.94.55,5.24,1.74,8.57,5.64,10.95-4.77.47-7.35,2.01-10.78,5.91Z"/>
        <path class="cls-18" d="M52.79,516.77c-.69-4.1-2-6.61-5.35-9.14,4.73-.68,7.94-1.82,10.72-5.02.8,4.61,2.06,7.27,4.72,9.94-3.9.27-5.89,1.07-10.1,4.22Z"/>
        <path class="cls-9" d="M148.71,523.63c-.63-4.04-1.83-6.8-5.05-9.58,4.27-1.39,6.73-2.41,8.92-5.79.46,4.83,1.75,7.79,4.74,10.81-3.84.51-6.02,1.65-8.61,4.55Z"/>
        <path class="cls-5" d="M75.1,524.65c-.27-3.88-1.58-6.63-4.19-9.3,4.24-1.16,6.56-2.36,8.97-4.89,1.14,3.86,2.34,6.19,4.75,8.61-4.29.61-6.76,2.33-9.53,5.58Z"/>
        <path class="cls-2" d="M221.35,522.59c-.85-3.71-2.1-6.03-5.04-8.53,4.26-1.35,6.71-2.39,8.87-5.86,1.02,4.45,2.14,7.03,4.81,9.81-3.91.53-6.04,1.62-8.64,4.58Z"/>
        <path class="cls-18" d="M486.12,151.2c-.62-5.19-2.59-8.71-7.5-11.05,7.1.51,12.17-1.99,14.09-7.97-.35,5.62.57,9.74,5.15,13.12-5.11.65-7.69,1.55-11.74,5.91Z"/>
        <path class="cls-16" d="M427.95,118.64c.51,3.59,3.51,5.6,6.89,7.04-6.33-.59-11.29,1.66-13.41,6.9-1.36-1.14-1.01-3.47-1.1-5.4-.21-4.55-4.15-6.3-6.35-8.97,5.23,1.25,10.18-1.45,12.58-6.68.47,3.05-.05,5.33,1.38,7.11Z"/>
        <path class="cls-2" d="M420.66,134.5c-1.72,4.25.41,8.62,4.6,11.9-5.27.74-8.41,1.83-11.36,6.04-.52-5.88-2.47-9.56-6.78-11.77,4.84-.55,9.84-1.29,12.23-6.43-.08-1.24,1.59-1.31,1.31.26Z"/>
      </g>
    </g>
  </g>
  <g id="_アノビル" data-name="アノビル">
    <polygon class="cls-3" points="216.94 44.2 69.85 401.03 144.68 433.88 245.86 189.23 285.49 230.05 253.39 305.33 409.25 467.8 444.65 383.53 347.57 284.73 381.38 210.23 216.94 44.2"/>
  </g>
</svg>